<?xml version="1.0" encoding="UTF-8"?>
<svg id="Layer_1" data-name="Layer 1" xmlns="http://www.w3.org/2000/svg" version="1.1" xmlns:xlink="http://www.w3.org/1999/xlink" viewBox="0 0 40 40">
  <defs>
    <style>
      .cls-1 {
        fill: url(#linear-gradient);
      }

      .cls-1, .cls-2, .cls-3, .cls-4, .cls-5, .cls-6, .cls-7, .cls-8, .cls-9, .cls-10, .cls-11, .cls-12, .cls-13, .cls-14, .cls-15, .cls-16, .cls-17, .cls-18 {
        stroke-width: 0px;
      }

      .cls-2 {
        fill: url(#linear-gradient-6);
      }

      .cls-3 {
        fill: url(#linear-gradient-11);
      }

      .cls-4 {
        fill: url(#linear-gradient-5);
      }

      .cls-5 {
        opacity: .76;
      }

      .cls-5, .cls-10 {
        fill: #131e2e;
      }

      .cls-6 {
        fill: url(#linear-gradient-2);
      }

      .cls-7 {
        fill: url(#linear-gradient-7);
      }

      .cls-8 {
        fill: url(#radial-gradient-2);
      }

      .cls-9 {
        fill: url(#linear-gradient-3);
      }

      .cls-10 {
        opacity: .1;
      }

      .cls-11 {
        fill: url(#linear-gradient-9);
      }

      .cls-12 {
        fill: url(#radial-gradient);
      }

      .cls-13 {
        fill: url(#linear-gradient-8);
      }

      .cls-14 {
        fill: #fff;
      }

      .cls-15 {
        fill: url(#linear-gradient-10);
      }

      .cls-16 {
        fill: url(#radial-gradient-3);
      }

      .cls-17 {
        fill: url(#linear-gradient-4);
      }

      .cls-18 {
        fill: url(#radial-gradient-4);
      }
    </style>
    <linearGradient id="linear-gradient" x1="20" y1="-.09" x2="20" y2="40.37" gradientUnits="userSpaceOnUse">
      <stop offset="0" stop-color="#4b4bad"/>
      <stop offset="1" stop-color="#6441a5"/>
    </linearGradient>
    <linearGradient id="linear-gradient-2" x1="6444.12" y1="-419.87" x2="6447.87" y2="-419.87" gradientTransform="translate(6477.54 -316.65) rotate(173.25) scale(1 -1)" gradientUnits="userSpaceOnUse">
      <stop offset="0" stop-color="#e6e6e6"/>
      <stop offset="1" stop-color="#a5b0b5"/>
    </linearGradient>
    <linearGradient id="linear-gradient-3" x1="11.09" y1="23.74" x2="15.2" y2="23.74" gradientTransform="matrix(1,0,0,1,0,0)" xlink:href="#linear-gradient-2"/>
    <linearGradient id="linear-gradient-4" x1="20.06" y1="24.46" x2="20.06" y2="18.88" gradientTransform="matrix(1,0,0,1,0,0)" xlink:href="#linear-gradient-2"/>
    <linearGradient id="linear-gradient-5" x1="20.06" y1="28.97" x2="20.06" y2="22.38" gradientTransform="matrix(1,0,0,1,0,0)" xlink:href="#linear-gradient-2"/>
    <linearGradient id="linear-gradient-6" x1="10.5" y1="13.19" x2="12.31" y2="13.19" gradientTransform="matrix(1,0,0,1,0,0)" xlink:href="#linear-gradient-2"/>
    <linearGradient id="linear-gradient-7" x1="27.69" y1="13.19" x2="29.51" y2="13.19" gradientTransform="matrix(1,0,0,1,0,0)" xlink:href="#linear-gradient-2"/>
    <linearGradient id="linear-gradient-8" x1="11.82" y1="13.19" x2="28.18" y2="13.19" gradientTransform="matrix(1,0,0,1,0,0)" xlink:href="#linear-gradient-2"/>
    <linearGradient id="linear-gradient-9" x1="20" y1="11.51" x2="20" y2="16.42" gradientUnits="userSpaceOnUse">
      <stop offset="0" stop-color="#203c7b"/>
      <stop offset="1" stop-color="#131e2e"/>
    </linearGradient>
    <radialGradient id="radial-gradient" cx="16.89" cy="13.85" fx="16.89" fy="13.85" r="1.39" gradientTransform="translate(0 6.54) scale(1 .53)" gradientUnits="userSpaceOnUse">
      <stop offset="0" stop-color="#82fff8"/>
      <stop offset="1" stop-color="#5792ad"/>
    </radialGradient>
    <radialGradient id="radial-gradient-2" cx="6958.24" cy="13.85" fx="6958.24" fy="13.85" r="1.39" gradientTransform="translate(6981.36 6.54) rotate(-180) scale(1 -.53)" xlink:href="#radial-gradient"/>
    <radialGradient id="radial-gradient-3" cx="20" cy="9.42" fx="20" fy="9.42" r="4.31" gradientTransform="translate(0 6.09) scale(1 .35)" gradientUnits="userSpaceOnUse">
      <stop offset="0" stop-color="#2c59a8"/>
      <stop offset="1" stop-color="#203c7b"/>
    </radialGradient>
    <linearGradient id="linear-gradient-10" x1="20" y1="8.3" x2="20" y2="10" gradientUnits="userSpaceOnUse">
      <stop offset="0" stop-color="#5792ad" stop-opacity="0"/>
      <stop offset="1" stop-color="#203c7b"/>
    </linearGradient>
    <linearGradient id="linear-gradient-11" x1="18.8" y1="23.75" x2="21.21" y2="26.01" gradientUnits="userSpaceOnUse">
      <stop offset="0" stop-color="#e6e6e6"/>
      <stop offset=".2" stop-color="#a5b0b5"/>
      <stop offset=".37" stop-color="#ccd1d3"/>
      <stop offset=".57" stop-color="#b5bec2"/>
      <stop offset=".74" stop-color="#fff"/>
      <stop offset="1" stop-color="#a5b0b5"/>
    </linearGradient>
    <radialGradient id="radial-gradient-4" cx="20" cy="24.88" fx="20" fy="24.88" r="1.42" gradientTransform="translate(0 -9.32)" gradientUnits="userSpaceOnUse">
      <stop offset="0" stop-color="#ff6d00"/>
      <stop offset="1" stop-color="#ff6d00"/>
    </radialGradient>
  </defs>
  <rect class="cls-1" width="40" height="40" rx="8.59" ry="8.59"/>
  <g>
    <g>
      <path class="cls-6" d="M24.07,22.24c.48,2.87,2.69,5.19,3.66,6.08,1.05.97,2.18.8,2.28-1.15.08-1.51-.18-3.23-.68-4.77-.44-1.35-1.2-2.63-2.26-3.45-.27-.21-.58-.33-.9-.36-.82-.09-1.59.43-1.88,1.27-.26.74-.36,1.59-.22,2.38Z"/>
      <path class="cls-9" d="M15.93,22.24c-.16.98-.53,1.89-.98,2.71-.04.08-.09.15-.13.23-.85,1.47-1.95,2.58-2.55,3.14-1.05.97-2.18.8-2.28-1.15-.08-1.51.18-3.23.68-4.77.02-.06.04-.12.06-.17.03-.1.07-.19.11-.29.46-1.17,1.15-2.26,2.1-2.99.27-.2.58-.33.9-.36.82-.09,1.59.43,1.88,1.27.26.74.36,1.59.22,2.38Z"/>
      <path class="cls-10" d="M14.95,24.95c-.04.08-.09.15-.13.23-1.61-.58-2.98-1.57-4.09-2.95.03-.1.07-.19.11-.29.61.79,1.32,1.46,2.09,1.99.62.42,1.29.76,2.02,1.02Z"/>
      <path class="cls-10" d="M25.05,24.95c.04.08.09.15.13.23,1.61-.58,2.98-1.57,4.09-2.95-.03-.1-.07-.19-.11-.29-.61.79-1.32,1.46-2.09,1.99-.62.42-1.29.76-2.02,1.02Z"/>
      <path class="cls-17" d="M26.81,22.61c0,1.03-.16,2.08-.44,3.09-3.37,2.95-8.64,2.85-12.63,0-.28-1.01-.44-2.06-.44-3.09,0-4.52,3.02-5.26,6.75-5.26s6.75.74,6.75,5.26Z"/>
      <path class="cls-4" d="M26.37,25.7c-.97,3.45-3.43,6.46-6.31,6.46s-5.35-3.01-6.31-6.46c.15,0,.29-.02.44-.04,1.11-.15,2.16-.7,2.91-1.53.49-.54.85-1.18,1.36-1.7,0,0,0,0,.01-.01.85-.86,2.24-.86,3.09,0,0,0,0,0,.01.01.51.52.87,1.16,1.36,1.7.75.83,1.8,1.38,2.91,1.53.18.02.36.04.55.04Z"/>
      <path class="cls-2" d="M12.31,15.1c-1,0-1.81-.85-1.81-1.91s.81-1.91,1.81-1.91v3.81Z"/>
      <path class="cls-7" d="M27.69,15.1c1,0,1.81-.85,1.81-1.91s-.81-1.91-1.81-1.91v3.81Z"/>
      <path class="cls-13" d="M28.18,13.57c0,3.98-3.66,4.98-8.18,4.98-4.52,0-8.18-1-8.18-4.98v-.75c0-3.98,3.66-4.98,8.18-4.98,4.52,0,8.18,1,8.18,4.98v.75Z"/>
      <path class="cls-11" d="M26.51,14.02c0,2.21-2.91,2.76-6.5,2.76-3.59,0-6.5-.55-6.5-2.76v-.41c0-2.21,2.91-2.76,6.5-2.76,3.59,0,6.5.55,6.5,2.76v.41Z"/>
      <path class="cls-12" d="M18.24,14.24c.04.16-.1.3-.26.26-.36-.09-.73-.14-1.09-.14s-.74.05-1.09.14c-.16.04-.3-.1-.26-.26.15-.6.7-1.05,1.35-1.05s1.2.45,1.35,1.05Z"/>
      <path class="cls-8" d="M21.77,14.24c-.04.16.1.3.26.26.36-.09.73-.14,1.09-.14s.74.05,1.09.14c.16.04.3-.1.26-.26-.15-.6-.7-1.05-1.35-1.05s-1.2.45-1.35,1.05Z"/>
      <path class="cls-5" d="M26.51,13.61v.41s0,.05,0,.07c-.06-2.15-2.95-2.69-6.5-2.69s-6.44.54-6.5,2.69c0-.02,0-.05,0-.07v-.41c0-2.21,2.91-2.76,6.5-2.76s6.5.55,6.5,2.76Z"/>
      <path class="cls-16" d="M23.65,8.14c-.39.38-.65.88-.77,1.54-.04.21-.22.36-.43.36h-4.9c-.21,0-.39-.15-.43-.36-.12-.65-.38-1.16-.77-1.54,1.1-.22,2.34-.3,3.65-.3s2.55.08,3.65.3Z"/>
      <path class="cls-15" d="M23.65,8.14c-.39.38-.65.88-.77,1.54-.04.21-.22.36-.43.36h-4.9c-.21,0-.39-.15-.43-.36-.12-.65-.38-1.16-.77-1.54.53.31.83.58.95,1.19.04.19.21.33.4.33h4.59c.2,0,.37-.14.4-.33.11-.61.43-1.03.95-1.19Z"/>
      <g>
        <circle class="cls-3" cx="20" cy="24.88" r="1.76"/>
        <circle class="cls-18" cx="20" cy="24.88" r="1.4"/>
        <path class="cls-10" d="M21.41,24.88s0,.09,0,.13c-.07-.71-.67-1.27-1.4-1.27s-1.33.56-1.4,1.27c0-.04,0-.09,0-.13,0-.78.63-1.4,1.4-1.4s1.4.63,1.4,1.4Z"/>
      </g>
    </g>
    <g>
      <rect class="cls-14" x="19.9" y="24.08" width=".21" height="1.6" rx=".06" ry=".06" transform="translate(23.45 -6.86) rotate(45)"/>
      <rect class="cls-14" x="19.99" y="24.79" width=".19" height=".86" rx=".05" ry=".05" transform="translate(23.72 -6.81) rotate(45)"/>
      <rect class="cls-14" x="19.83" y="24.1" width=".19" height=".86" rx=".05" ry=".05" transform="translate(23.18 -6.91) rotate(45)"/>
    </g>
  </g>
</svg>