<?xml version="1.0" encoding="UTF-8"?>
<svg id="Layer_1" data-name="Layer 1" xmlns="http://www.w3.org/2000/svg" version="1.1" xmlns:xlink="http://www.w3.org/1999/xlink" viewBox="0 0 40 40">
  <defs>
    <style>
      .cls-1 {
        fill: url(#linear-gradient);
      }

      .cls-1, .cls-2 {
        stroke-width: 0px;
      }

      .cls-2 {
        fill: #fff;
      }
    </style>
    <linearGradient id="linear-gradient" x1="-204.49" y1="224.43" x2="-164.49" y2="224.43" gradientTransform="translate(204.43 -204.43)" gradientUnits="userSpaceOnUse">
      <stop offset="0" stop-color="#00bc82"/>
      <stop offset="1" stop-color="#007689"/>
    </linearGradient>
  </defs>
  <rect class="cls-1" x="0" y="0" width="40" height="40" rx="8.59" ry="8.59" transform="translate(0 40) rotate(-90)"/>
  <path class="cls-2" d="M9.07,25.27s.01.01.02.02v-.02s-.02,0-.02,0Z"/>
  <g>
    <path class="cls-2" d="M28.08,14.26c-.2-.09-.27-.21-.32-.41-.24-1.02-.86-1.7-1.85-2.03-.2-.07-.4-.11-.6-.16-.17-1.46-.9-2.5-2.27-2.99-1.38-.49-2.59-.12-3.63.86-1.85-.89-3.53-.4-4.59,1.3-.05.09-.21.16-.32.16-1.64.09-2.9,1.42-2.85,3.05,0,.25-.06.39-.26.54-1.12.84-1.59,1.97-1.31,3.34.28,1.37,1.17,2.22,2.51,2.57.29.08.6.08.93.12,0,.76,0,1.52,0,2.28,0,.23-.05.35-.27.46-.66.32-.99,1.06-.84,1.75.16.73.77,1.24,1.51,1.27.73.03,1.39-.42,1.61-1.1.23-.7-.01-1.5-.67-1.84-.36-.19-.39-.42-.38-.75.02-.54,0-1.08,0-1.62v-.48h2.97v.33c0,.82-.03,1.65.01,2.47.02.51-.08.96-.4,1.35-.8.96-1.11,2.05-.94,3.29.03.24-.05.36-.28.48-1.07.55-1.16,2.02-.19,2.71.77.55,1.83.34,2.33-.46.5-.8.21-1.83-.65-2.27-.18-.09-.25-.18-.24-.38.01-.44,0-.89,0-1.33,0-.15.05-.31.12-.44.33-.56.7-1.11,1.03-1.67.1-.17.16-.39.17-.59.02-1.05,0-2.09,0-3.14v-.34h2.83c0,1.3,0,2.58-.01,3.86,0,.08-.13.19-.23.24-.68.36-1.02,1.09-.84,1.81.18.75.83,1.24,1.6,1.23.74,0,1.38-.53,1.55-1.26.17-.71-.19-1.46-.88-1.79-.19-.09-.23-.2-.23-.39,0-1.15,0-2.3,0-3.46,0-.09.01-.18.02-.27h2.55s.03.06.03.07c0,.91.04,1.82,0,2.73-.03.69.09,1.3.53,1.83.71.84.95,1.8.82,2.88-.02.2-.06.31-.25.41-.7.36-1.03,1.15-.81,1.88.22.7.88,1.18,1.6,1.16.72-.03,1.35-.54,1.52-1.22.18-.73-.15-1.47-.83-1.81-.21-.1-.26-.22-.26-.44.01-.51.02-1.01,0-1.52,0-.18-.06-.38-.15-.53-.33-.57-.69-1.11-1.03-1.68-.08-.15-.14-.33-.14-.5-.01-.98,0-1.97,0-2.95,0-.1.01-.2.02-.32.34,0,.64,0,.95,0,1.54-.05,2.84-1.15,3.15-2.65.31-1.49-.45-3.02-1.86-3.67ZM17.25,29.95c-.01.34-.31.61-.65.61-.36,0-.64-.3-.63-.65.01-.34.3-.61.65-.61.36,0,.65.31.63.65ZM26.66,29.3c.35,0,.63.27.64.61.01.36-.27.65-.63.65-.36,0-.65-.28-.64-.64,0-.34.29-.61.63-.62ZM23.38,14.05c0-.35.19-.56.47-.56.26,0,.44.22.44.55,0,.53,0,1.05,0,1.58s0,1.01,0,1.52c0,.36-.17.57-.45.57-.28,0-.46-.21-.46-.57,0-1.03,0-2.07,0-3.1ZM16.04,16.75c-.2,0-.31.05-.37.25-.05.16-.12.32-.2.46-.12.22-.31.32-.56.21-.24-.11-.31-.32-.21-.55.48-1.11.97-2.22,1.46-3.33.1-.22.3-.36.54-.31.18.05.43.15.5.3.52,1.11,1,2.23,1.49,3.36.02.05.03.1.06.22-.1.1-.2.28-.34.32-.14.03-.36-.04-.46-.15-.13-.12-.19-.32-.25-.5-.07-.22-.2-.28-.42-.27-.41.02-.82.01-1.23,0ZM19.87,17.71c-.27-.02-.44-.17-.44-.45,0-1.1,0-2.2,0-3.29,0-.27.18-.43.45-.44.49,0,.97-.02,1.46.01.78.06,1.29.58,1.33,1.31.04.81-.4,1.39-1.2,1.53-.36.06-.73.06-1.14.08,0,.28,0,.53,0,.78-.01.28-.2.48-.45.46ZM14.63,24.74c.01.36-.26.65-.62.66-.35,0-.66-.29-.65-.63,0-.33.29-.62.63-.63.35,0,.63.26.65.6ZM22.39,26.12c.02.34-.28.65-.63.66-.34,0-.63-.27-.65-.61-.01-.36.27-.65.63-.66.34,0,.63.27.65.6Z"/>
    <path class="cls-2" d="M16.12,15.93c.19-.45.36-.87.56-1.34.2.48.37.9.56,1.34h-1.12Z"/>
    <path class="cls-2" d="M20.35,14.36c.29,0,.56-.02.83,0,.35.03.57.27.58.6.01.32-.2.59-.54.63-.28.03-.56,0-.87,0v-1.24Z"/>
  </g>
</svg>