<?xml version="1.0" encoding="UTF-8"?> <svg xmlns="http://www.w3.org/2000/svg" width="40" height="40" viewBox="0 0 40 40" fill="none"><g clip-path="url(#clip0_79_4946)"><rect width="40" height="40" rx="10" fill="url(#paint0_linear_79_4946)"></rect><path d="M12 16V14C12 13.4696 12.2107 12.9609 12.5858 12.5858C12.9609 12.2107 13.4696 12 14 12H16M12 24V26C12 26.5304 12.2107 27.0391 12.5858 27.4142C12.9609 27.7893 13.4696 28 14 28H16M24 12H26C26.5304 12 27.0391 12.2107 27.4142 12.5858C27.7893 12.9609 28 13.4696 28 14V16M24 28H26C26.5304 28 27.0391 27.7893 27.4142 27.4142C27.7893 27.0391 28 26.5304 28 26V24M17 18H17.01M23 18H23.01M17.5 23C17.8259 23.3326 18.2148 23.5968 18.6441 23.7772C19.0734 23.9576 19.5344 24.0505 20 24.0505C20.4656 24.0505 20.9266 23.9576 21.3559 23.7772C21.7852 23.5968 22.1741 23.3326 22.5 23" stroke="white" stroke-width="2" stroke-linecap="round" stroke-linejoin="round"></path></g><defs><linearGradient id="paint0_linear_79_4946" x1="20" y1="0" x2="20" y2="40" gradientUnits="userSpaceOnUse"><stop stop-color="#F3C9ED"></stop><stop offset="1" stop-color="#FB7BFF"></stop></linearGradient><clipPath id="clip0_79_4946"><rect width="40" height="40" fill="white"></rect></clipPath></defs></svg> 