<?xml version="1.0" encoding="UTF-8"?>
<svg id="Layer_1" data-name="Layer 1" xmlns="http://www.w3.org/2000/svg" version="1.1" xmlns:xlink="http://www.w3.org/1999/xlink" viewBox="0 0 40 40">
  <defs>
    <style>
      .cls-1 {
        fill: url(#linear-gradient);
      }

      .cls-1, .cls-2 {
        stroke-width: 0px;
      }

      .cls-2 {
        fill: #fff;
      }
    </style>
    <linearGradient id="linear-gradient" x1="-75.3" y1="95.23" x2="-35.3" y2="95.23" gradientTransform="translate(75.23 -75.23)" gradientUnits="userSpaceOnUse">
      <stop offset="0" stop-color="#ff8500"/>
      <stop offset="1" stop-color="#ffd371"/>
    </linearGradient>
  </defs>
  <rect class="cls-1" x="0" width="40" height="40" rx="8.59" ry="8.59" transform="translate(0 40) rotate(-90)"/>
  <g>
    <path class="cls-2" d="M27.07,10.69H8.29c-.25,0-.49.04-.72.12-.66.22-1.19.74-1.43,1.39-.09.24-.14.5-.14.78v9.76c0,1.26,1.01,2.27,2.26,2.29h.02v.02s-1.03,3.7-1.03,3.7c-.16.58.51,1.02.98.66l2.63-2.05,2.65-2.06.17-.13c.11-.08.24-.13.38-.13h12.99c1.26,0,2.29-1.02,2.29-2.29v-9.76c0-1.26-1.02-2.29-2.29-2.29ZM11.41,18.28c-1.11-1.59.63-3.34,2.23-2.23.06.04.1.09.14.14,1.11,1.6-.63,3.34-2.23,2.23-.05-.04-.1-.09-.14-.14ZM16.5,18.28c-1.11-1.59.63-3.34,2.23-2.23.05.04.1.09.14.14,1.11,1.6-.64,3.34-2.23,2.23-.05-.04-.1-.09-.14-.14ZM21.73,18.42c-.06-.04-.1-.09-.14-.14-.87-1.24,0-2.58,1.18-2.58.85,0,1.54.69,1.54,1.54,0,1.18-1.33,2.05-2.57,1.19Z"/>
    <path class="cls-2" d="M33.99,16.97v9.39c0,1.12-.81,2.06-1.88,2.25-.21.04-.34.26-.29.47l.8,2.89c.2.7-.62,1.25-1.2.8l-5.19-4.04c-.07-.05-.15-.08-.23-.08h-13.08s-.02,0-.03,0c-.35,0-.5-.46-.22-.67l1.62-1.26c.07-.05.15-.08.23-.08h12.15c2.36,0,4.26-1.91,4.26-4.26v-7.68c0-.21.17-.37.37-.37h0c1.47,0,2.66,1.19,2.66,2.66Z"/>
  </g>
  <path class="cls-2" d="M9.07,25.27s.01.01.02.02v-.02s-.02,0-.02,0Z"/>
</svg>