<?xml version="1.0" encoding="UTF-8"?>
<svg id="Layer_1" data-name="Layer 1" xmlns="http://www.w3.org/2000/svg" version="1.1" xmlns:xlink="http://www.w3.org/1999/xlink" viewBox="0 0 40 40">
  <defs>
    <style>
      .cls-1 {
        fill: url(#linear-gradient);
      }

      .cls-1, .cls-2 {
        stroke-width: 0px;
      }

      .cls-2 {
        fill: #fff;
      }
    </style>
    <linearGradient id="linear-gradient" x1="-134.02" y1="153.96" x2="-94.02" y2="153.96" gradientTransform="translate(133.96 -133.96)" gradientUnits="userSpaceOnUse">
      <stop offset="0" stop-color="#0099ad"/>
      <stop offset="1" stop-color="#004e89"/>
    </linearGradient>
  </defs>
  <rect class="cls-1" x="0" y="0" width="40" height="40" rx="8.59" ry="8.59" transform="translate(0 40) rotate(-90)"/>
  <path class="cls-2" d="M9.07,25.27s.01.01.02.02v-.02s-.02,0-.02,0Z"/>
  <path class="cls-2" d="M28.39,27.59s0,0,0,0c0,0,0,0,0,0v-2.99c0-1.96,0-3.93,0-5.89,0-2.4,0-4.81,0-7.21,0-.94-.64-1.65-1.57-1.76-.19-.02-.38-.01-.57-.01h-8.59c-.95,0-1.9,0-2.85,0-1.06,0-1.91.93-1.71,2.1h.18c.51,0,1.03,0,1.54,0,.33,0,.53.2.54.53,0,.11,0,.21,0,.32,0,.42-.19.61-.61.61-.84,0-1.67,0-2.51,0-.37,0-.57.19-.58.56,0,.11,0,.22,0,.33,0,.37.21.56.58.56.27,0,.54,0,.83,0v3.59h.21c.49,0,.98,0,1.47,0,.34,0,.54.21.55.55,0,.11,0,.21,0,.32,0,.4-.19.6-.59.6-.85,0-1.7,0-2.54,0-.36,0-.56.2-.56.56,0,.12,0,.24,0,.35,0,.35.21.55.56.55.23,0,.47.01.7,0,.16,0,.22.03.22.21,0,1.06,0,2.12,0,3.18,0,.17.05.2.21.2.5,0,.99,0,1.49,0,.32,0,.52.21.53.53,0,.11,0,.21,0,.32,0,.43-.18.61-.61.61-.84,0-1.67,0-2.51,0-.38,0-.57.2-.58.58,0,.1,0,.2,0,.3,0,.39.21.58.59.58h.89c0,.25,0,.48,0,.71,0,1.09.74,1.82,1.83,1.82,1.7,0,3.39,0,5.09,0,2.22,0,4.43,0,6.65,0,.84,0,1.56-.58,1.69-1.39.07-.42.04-.87.06-1.3,0,0,0,0,0,0ZM24.3,24.11c-3.46.16-6.44-2.1-7.19-5.47-.11-.48-.15-.98-.16-1.48-.02-1.08,1.02-1.9,2.08-1.69.12.02.18.07.2.2.18.9.36,1.8.56,2.7.02.12,0,.21-.11.26-.24.11-.48.22-.74.34.5,1.58,2.06,2.92,3.48,3.25.09-.24.17-.48.26-.72.05-.12.13-.17.27-.15.91.11,1.83.21,2.74.32.06,0,.14.07.16.13.39,1.08-.4,2.25-1.55,2.31Z"/>
</svg>