<?xml version="1.0" encoding="UTF-8"?>
<svg id="Layer_1" data-name="Layer 1" xmlns="http://www.w3.org/2000/svg" version="1.1" xmlns:xlink="http://www.w3.org/1999/xlink" viewBox="0 0 40 40">
  <defs>
    <style>
      .cls-1 {
        fill: url(#linear-gradient);
      }

      .cls-1, .cls-2 {
        stroke-width: 0px;
      }

      .cls-2 {
        fill: #fff;
      }
    </style>
    <linearGradient id="linear-gradient" x1="-257.59" y1="277.53" x2="-217.59" y2="277.53" gradientTransform="translate(257.53 -257.53)" gradientUnits="userSpaceOnUse">
      <stop offset="0" stop-color="#964400"/>
      <stop offset="1" stop-color="#ff8b00"/>
    </linearGradient>
  </defs>
  <rect class="cls-1" x="0" y="0" width="40" height="40" rx="8.59" ry="8.59" transform="translate(0 40) rotate(-90)"/>
  <path class="cls-2" d="M9.07,25.27s.01.01.02.02v-.02s-.02,0-.02,0Z"/>
  <g>
    <path class="cls-2" d="M27.39,14.33v-.18c0,.06,0,.12,0,.18ZM28.34,28.01v.08s0-.05,0-.08ZM27.38,29.25v-.09s0,.06,0,.09ZM27.37,29.59v.95-.95s0,0,0,0ZM17.41,8.5h-.03"/>
    <path class="cls-2" d="M27.39,16.42v-.73h0s0-6.24,0-6.24h-.17c-3.14,0-6.28,0-9.42,0h0s-1.72.04-1.72.04c-.13.1-.17.22-.17.39,0,1.19,0,2.38,0,3.57v.17h-.17c-1.22,0-2.45,0-3.67,0-.21,0-.34.13-.34.34v16.59h15.63v-.95s.08-.04.12-.06c-.04-.1-.1-.19-.11-.29v-.09c.02-.08.07-.15.21-.21-.03-.01-.04-.02-.06-.02-.15-.01-.14-.11-.14-.22,0-1.51,0-3.02,0-4.52v-.05c0-.32,0-.64,0-.95,0-.1.03-.17.1-.24.25-.24.49-.48.74-.73.03-.03.06-.06.11-.1,0,.07.01.11.01.16,0,.62,0,1.25,0,1.87,0,1.29,0,2.58,0,3.87,0,0,0,.01,0,.02v.08s-.03.04-.08.03c0,.06-.03.16,0,.19.11.12.07.25.08.38,0,.01-.04.02-.05.04-.02.02-.05.04-.05.06,0,.08,0,.16.01.25.02,0,.05,0,.09,0,0,.05,0,.09,0,.13,0,.33,0,.65,0,.98v.1c0,.24,0,.47,0,.71,0,.37-.18.55-.55.55-.64,0-1.27,0-1.91,0-1.63,0-3.27,0-4.9,0-1.1,0-2.21,0-3.31,0-.08,0-.15,0-.23,0-.02,0-.04,0-.06,0h-1.77c-1.44,0-2.87,0-4.31,0-.32,0-.51-.2-.51-.51,0-.15,0-.3,0-.45,0-.38,0-.76,0-1.13,0-.08,0-.17,0-.25v-3.24h0c0-4.05,0-8.1,0-12.15,0-.25.07-.43.25-.61,1.48-1.46,2.96-2.93,4.43-4.41.17-.17.36-.26.6-.25.18,0,.35,0,.52,0,.17,0,.33,0,.48,0h.49s.37,0,.37,0c2.42,0,4.83,0,7.25,0,.87,0,1.74,0,2.61,0,.38,0,.56.18.56.57,0,1.04,0,2.09,0,3.13h0s0,3.01,0,3.01h0c0,.07,0,.14,0,.21,0,.05-.03.12-.06.15-.28.28-.57.56-.85.84,0,0-.02,0-.03.01Z"/>
    <path class="cls-2" d="M16.33,28c-.16.1-.32.21-.48.31-.21.13-.42.28-.64.39-.31.16-.66.07-.84-.19-.06-.09-.11-.21-.12-.32-.04-.27.03-.53.1-.8.05-.21.1-.42.13-.63.02-.11-.11-.26-.21-.26.01.03.02.05.03.09-.09.03-.18.05-.26.08-.18.08-.35.17-.51.3-.11.09-.2.17-.27.3-.06.14-.16.25-.24.38-.13-.05-.13-.05-.12.09,0,.02-.01.05-.03.07-.05.04-.28,0-.34-.06.03-.03.05-.06.1-.12-.06-.05-.13-.1-.18-.16-.02-.03-.04-.1-.02-.13.17-.31.37-.6.63-.84.04-.04.11-.04.17-.06-.03-.19.16-.21.28-.27.14-.08.3-.12.45-.18.11-.04.18-.04.19.12.07-.11.13-.2.27-.15.1.03.21.05.29.07.02.09.04.14.05.2.01,0,.02,0,.03,0,.02-.03.03-.06.05-.1.18.11.27.27.29.46.03.27-.03.53-.1.8-.06.22-.11.45-.16.67.02.01.03.02.05.04.12-.07.24-.15.36-.22.25-.15.49-.33.74-.46.35-.18.75-.05.91.27.12.24.1.48.04.73-.07.27-.13.54-.2.81-.02.07,0,.14,0,.21.08,0,.18.02.24-.02.21-.12.41-.25.61-.39.37-.26.58-.66.84-1.02.58-.84,1.16-1.69,1.79-2.5.64-.83,1.34-1.62,2.01-2.42.13-.15.09-.15.24,0,.54.54,1.07,1.08,1.62,1.62.06.06.06.1,0,.16-.91.81-1.85,1.58-2.81,2.32-.79.6-1.59,1.18-2.44,1.7-.3.18-.51.45-.78.66-.29.23-.59.46-.95.56-.24.06-.49.07-.72-.07-.27-.16-.39-.48-.31-.84.07-.32.15-.65.23-.97.01-.05.01-.11.02-.16-.01-.01-.03-.02-.04-.03Z"/>
    <path class="cls-2" d="M30.79,16.2c-.31-.26-.67-.36-1.05-.15-.08.04-.14.06-.23.02-.12-.05-.24-.04-.35.07-.48.49-.98.97-1.47,1.45-1.21,1.2-2.41,2.41-3.61,3.62-.3.3-.59.62-.89.93.53.53,1.06,1.05,1.58,1.57h0s.13.14.13.14l.09.09.11-.1.07-.06.06-.05.09-.08.21-.19.67-.61s0,0,0,0c0,0,0,0,0,0,1.12-1.11,2.24-2.22,3.35-3.34.49-.49.98-.98,1.46-1.47.06-.06.13-.16.11-.22-.06-.19-.01-.36.04-.54.13-.43-.05-.79-.38-1.06ZM30.28,17.79c-.16.18-.33.35-.51.51-1.13.99-2.27,1.98-3.41,2.96-.23.2-.49.15-.59-.15-.02-.06.02-.16.06-.21.3-.35.6-.7.9-1.05.72-.83,1.44-1.66,2.17-2.48.16-.19.35-.35.54-.52.05-.05.14-.06.22-.09.07.03.14.05.2.1.14.13.28.26.41.4.18.2.19.32.01.52Z"/>
    <path class="cls-2" d="M14.52,16.73c0-.3,0-.58,0-.86,0-.03.05-.06.08-.08.03-.01.07,0,.1,0,3.1,0,6.21,0,9.31,0,.05,0,.11,0,.16,0v.94h-9.66Z"/>
    <path class="cls-2" d="M22.82,18.17v.94c-.05,0-.1,0-.15,0-2.66,0-5.32,0-7.98,0q-.16,0-.16-.17c0-.21,0-.42,0-.63,0-.11.03-.15.15-.15,1.45,0,2.89,0,4.34,0,1.22,0,2.44,0,3.66,0,.05,0,.1,0,.16,0Z"/>
    <path class="cls-2" d="M10.79,30.54h0v-1.39c0,.08,0,.17,0,.25,0,.38,0,.76,0,1.13Z"/>
    <path class="cls-2" d="M20.98,31.5h0s-3.59,0-3.59,0c.02,0,.04,0,.06,0,.08,0,.15,0,.23,0,1.1,0,2.21,0,3.31,0Z"/>
    <path class="cls-2" d="M27.49,29.54s-.07.03-.11.06v-.34c.02.09.07.19.11.29Z"/>
    <path class="cls-2" d="M27.58,28.94c-.13.07-.19.14-.21.21v-4.99c0,1.51,0,3.02,0,4.52,0,.11,0,.21.14.22.02,0,.03.01.06.02Z"/>
    <path class="cls-2" d="M28.34,24.11v3.9s0-.02,0-.02c0-1.29,0-2.58,0-3.87h0Z"/>
    <path class="cls-2" d="M28.34,28.09v2.05c0-.33,0-.65,0-.98,0-.04,0-.08,0-.13-.04,0-.07,0-.09,0,0-.09-.01-.17-.01-.25,0-.02.03-.04.05-.06.02-.02.05-.03.05-.04,0-.13.04-.26-.08-.38-.03-.03,0-.12,0-.19.05,0,.07-.01.08-.03Z"/>
    <path class="cls-2" d="M17.07,8.5c-.15,0-.31,0-.48,0h0s.47,0,.47,0Z"/>
    <path class="cls-2" d="M12.48,27.26l-.06.11c-.09.18-.01.39.17.47h0c.17.07.36,0,.44-.17l.02-.03s.41-.88,1.33-1.07l.6.19.09-.42s-.91-.97-2.07.25l-.52.69Z"/>
    <polygon class="cls-2" points="26.2 22.83 26.2 22.84 26.2 22.83 26.2 22.83"/>
  </g>
</svg>