<?xml version="1.0" encoding="UTF-8"?>
<svg id="Layer_1" data-name="Layer 1" xmlns="http://www.w3.org/2000/svg" version="1.1" xmlns:xlink="http://www.w3.org/1999/xlink" viewBox="0 0 40 40">
  <defs>
    <style>
      .cls-1 {
        fill: url(#linear-gradient);
      }

      .cls-1, .cls-2 {
        stroke-width: 0px;
      }

      .cls-2 {
        fill: #fff;
      }
    </style>
    <linearGradient id="linear-gradient" x1="-315.81" y1="335.74" x2="-275.81" y2="335.74" gradientTransform="translate(315.74 -315.74)" gradientUnits="userSpaceOnUse">
      <stop offset="0" stop-color="#79218e"/>
      <stop offset="1" stop-color="#cf4dff"/>
    </linearGradient>
  </defs>
  <rect class="cls-1" y="0" width="40" height="40" rx="8.59" ry="8.59" transform="translate(0 40) rotate(-90)"/>
  <path class="cls-2" d="M9.07,25.27s.01.01.02.02v-.02s-.02,0-.02,0Z"/>
  <g>
    <path class="cls-2" d="M12.93,22.03c.37-.13.72-.21,1.03-.37,1.31-.68,2.66-.66,4-.19.95.34,1.86.8,2.8,1.18.19.08.42.11.63.11,1.29-.03,2.57,0,3.79.45.44.17.81.14,1.25.05,1.02-.21,1.86-.8,2.75-1.27.42-.22.85-.34,1.31-.24.77.17,1.19.89.97,1.65-.12.41-.35.74-.68.99-1.09.83-2.16,1.68-3.27,2.47-.46.32-.99.56-1.52.77-1.09.44-2.2.82-3.3,1.24-.73.28-1.47.31-2.23.15-1.76-.37-3.53-.73-5.3-1.06-.29-.05-.6.03-.9.05-.04,0-.09.04-.11.08-.18.31-.49.4-.81.48-.82.21-1.63.44-2.44.66-.5.13-.7,0-.83-.49-.52-2.12-1.04-4.24-1.55-6.36-.1-.39.04-.62.43-.73.89-.25,1.79-.5,2.69-.74.56-.15,1.03.12,1.19.67.03.12.06.24.11.44ZM14.13,26.9c.42,0,.82-.06,1.19.01,1.81.34,3.61.7,5.41,1.08.53.11,1.03.09,1.54-.1.87-.33,1.73-.67,2.61-.97,1.03-.34,1.98-.81,2.83-1.49.69-.55,1.42-1.04,2.12-1.59.23-.18.43-.43.59-.68.15-.23.01-.42-.26-.4-.17.02-.35.08-.5.17-1.03.56-2.03,1.19-3.22,1.4-.02,0-.03.02-.05.04,0,.08.01.16.02.24.05.52-.13.95-.57,1.22-.24.15-.53.26-.81.32-.8.16-1.61.02-2.41-.07-.77-.09-1.54-.26-2.31.04-.06.02-.13.01-.2,0-.24-.05-.39-.2-.41-.45-.03-.27.09-.46.34-.56.57-.24,1.17-.24,1.77-.19.68.07,1.36.18,2.04.22.41.02.83-.02,1.24-.1.31-.06.39-.32.18-.56-.15-.17-.39-.31-.61-.37-1.07-.3-2.17-.35-3.27-.3-.35.02-.67-.04-.99-.19-.87-.39-1.74-.8-2.64-1.14-.99-.37-2.03-.47-3.03-.02-.49.22-.96.44-1.48.52-.01,0-.02.03-.05.05.32,1.29.64,2.58.95,3.85ZM9.61,22.55c.46,1.87.9,3.7,1.35,5.55.76-.2,1.48-.4,2.23-.6-.46-1.86-.91-3.69-1.37-5.55-.75.2-1.46.39-2.21.59Z"/>
    <path class="cls-2" d="M26.54,17.26c-.25.32-.48.61-.67.85-.77-.07-1.51-.18-2.25-.19-.94-.02-1.86.16-2.69.61-.29.16-.56.37-.77.61-.11.13-.15.39-.12.57.04.23.28.28.5.28.87,0,1.74,0,2.61,0,.82,0,1.65,0,2.45,0,.18.38.34.73.52,1.1-.24.01-.48.03-.72.03-1.31,0-2.61,0-3.92,0-.45,0-.92.02-1.36-.06-1.08-.22-1.59-1.35-1.05-2.31.19-.33.47-.62.77-.86.74-.58,1.62-.85,2.54-.99,1.29-.2,2.57-.14,3.83.25.11.03.21.07.32.11Z"/>
    <path class="cls-2" d="M23.77,10.73c1.55,0,2.82,1.27,2.81,2.81,0,1.55-1.27,2.81-2.81,2.8-1.53,0-2.79-1.26-2.8-2.79,0-1.55,1.25-2.81,2.8-2.82ZM22.09,13.54c0,.94.76,1.69,1.71,1.68.93,0,1.67-.76,1.67-1.69,0-.94-.76-1.69-1.71-1.68-.93,0-1.67.76-1.67,1.69Z"/>
    <path class="cls-2" d="M26.08,19.42c-.02-1.23.94-2.22,2.17-2.24,1.18-.02,2.2.95,2.23,2.13.03,1.25-.94,2.26-2.16,2.28-1.24.01-2.21-.92-2.23-2.17ZM28.65,19.01c0-.22,0-.4,0-.57-.01-.25-.17-.42-.38-.4-.23.02-.36.16-.36.39,0,.18,0,.36,0,.58-.19,0-.36,0-.53,0-.23,0-.42.07-.43.34-.01.24.14.38.41.4.18.01.35.02.55.03,0,.2,0,.37,0,.54,0,.25.15.39.39.4.24,0,.32-.17.33-.38.01-.19,0-.37,0-.58.23,0,.41.01.6,0,.22-.02.38-.13.38-.38,0-.24-.14-.36-.38-.37-.19,0-.37,0-.59,0Z"/>
    <path class="cls-2" d="M11.81,26.09c.36,0,.65.3.65.65,0,.35-.3.65-.65.65-.37,0-.66-.3-.65-.67,0-.36.29-.64.66-.63Z"/>
  </g>
</svg>