<?xml version="1.0" encoding="UTF-8"?>
<svg id="Layer_1" data-name="Layer 1" xmlns="http://www.w3.org/2000/svg" version="1.1" xmlns:xlink="http://www.w3.org/1999/xlink" viewBox="0 0 40 40">
  <defs>
    <style>
      .cls-1 {
        fill: url(#linear-gradient);
      }

      .cls-1, .cls-2 {
        stroke-width: 0px;
      }

      .cls-2 {
        fill: #fff;
      }
    </style>
    <linearGradient id="linear-gradient" x1="-373.51" y1="393.45" x2="-333.51" y2="393.45" gradientTransform="translate(373.45 -373.45)" gradientUnits="userSpaceOnUse">
      <stop offset="0" stop-color="#a70000"/>
      <stop offset="1" stop-color="#fd0100"/>
    </linearGradient>
  </defs>
  <rect class="cls-1" y="0" width="40" height="40" rx="8.59" ry="8.59" transform="translate(0 40) rotate(-90)"/>
  <path class="cls-2" d="M16.91,20.26h0c0,.75-.6,1.34-1.33,1.34s-1.33-.59-1.33-1.33.6-1.33,1.33-1.33c.54,0,1.01.33,1.21.8l-.72.45-.44-.61c-.08-.12-.24-.14-.35-.06s-.14.23-.06.34l.71,1.01.98-.61Z"/>
  <path class="cls-2" d="M15.93,16.78l-.71-1.01c-.08-.11-.05-.26.06-.34.11-.08.27-.06.35.06l.44.61.74-.46c-.18-.49-.67-.85-1.23-.85-.73,0-1.33.6-1.33,1.33s.6,1.33,1.33,1.33,1.3-.56,1.32-1.28l-.97.61ZM15.93,16.78l-.71-1.01c-.08-.11-.05-.26.06-.34.11-.08.27-.06.35.06l.44.61.74-.46c-.18-.49-.67-.85-1.23-.85-.73,0-1.33.6-1.33,1.33s.6,1.33,1.33,1.33,1.3-.56,1.32-1.28l-.97.61ZM15.58,23.09c-.73,0-1.33.6-1.33,1.33s.6,1.33,1.33,1.33,1.33-.6,1.33-1.33-.6-1.33-1.33-1.33ZM15.93,16.78l-.71-1.01c-.08-.11-.05-.26.06-.34.11-.08.27-.06.35.06l.44.61.74-.46c-.18-.49-.67-.85-1.23-.85-.73,0-1.33.6-1.33,1.33s.6,1.33,1.33,1.33,1.3-.56,1.32-1.28l-.97.61ZM15.93,16.78l-.71-1.01c-.08-.11-.05-.26.06-.34.11-.08.27-.06.35.06l.44.61.74-.46c-.18-.49-.67-.85-1.23-.85-.73,0-1.33.6-1.33,1.33s.6,1.33,1.33,1.33,1.3-.56,1.32-1.28l-.97.61ZM15.58,23.09c-.73,0-1.33.6-1.33,1.33s.6,1.33,1.33,1.33,1.33-.6,1.33-1.33-.6-1.33-1.33-1.33ZM15.58,27.24c-.73,0-1.33.6-1.33,1.33s.6,1.33,1.33,1.33,1.33-.6,1.33-1.33-.6-1.33-1.33-1.33ZM15.58,23.09c-.73,0-1.33.6-1.33,1.33s.6,1.33,1.33,1.33,1.33-.6,1.33-1.33-.6-1.33-1.33-1.33ZM15.93,16.78l-.71-1.01c-.08-.11-.05-.26.06-.34.11-.08.27-.06.35.06l.44.61.74-.46c-.18-.49-.67-.85-1.23-.85-.73,0-1.33.6-1.33,1.33s.6,1.33,1.33,1.33,1.3-.56,1.32-1.28l-.97.61ZM15.93,16.78l-.71-1.01c-.08-.11-.05-.26.06-.34.11-.08.27-.06.35.06l.44.61.74-.46c-.18-.49-.67-.85-1.23-.85-.73,0-1.33.6-1.33,1.33s.6,1.33,1.33,1.33,1.3-.56,1.32-1.28l-.97.61ZM15.58,23.09c-.73,0-1.33.6-1.33,1.33s.6,1.33,1.33,1.33,1.33-.6,1.33-1.33-.6-1.33-1.33-1.33ZM15.58,27.24c-.73,0-1.33.6-1.33,1.33s.6,1.33,1.33,1.33,1.33-.6,1.33-1.33-.6-1.33-1.33-1.33ZM15.58,27.24c-.73,0-1.33.6-1.33,1.33s.6,1.33,1.33,1.33,1.33-.6,1.33-1.33-.6-1.33-1.33-1.33ZM15.58,23.09c-.73,0-1.33.6-1.33,1.33s.6,1.33,1.33,1.33,1.33-.6,1.33-1.33-.6-1.33-1.33-1.33ZM15.93,16.78l-.71-1.01c-.08-.11-.05-.26.06-.34.11-.08.27-.06.35.06l.44.61.74-.46c-.18-.49-.67-.85-1.23-.85-.73,0-1.33.6-1.33,1.33s.6,1.33,1.33,1.33,1.3-.56,1.32-1.28l-.97.61ZM15.93,16.78l-.71-1.01c-.08-.11-.05-.26.06-.34.11-.08.27-.06.35.06l.44.61.74-.46c-.18-.49-.67-.85-1.23-.85-.73,0-1.33.6-1.33,1.33s.6,1.33,1.33,1.33,1.3-.56,1.32-1.28l-.97.61ZM15.58,23.09c-.73,0-1.33.6-1.33,1.33s.6,1.33,1.33,1.33,1.33-.6,1.33-1.33-.6-1.33-1.33-1.33ZM15.58,27.24c-.73,0-1.33.6-1.33,1.33s.6,1.33,1.33,1.33,1.33-.6,1.33-1.33-.6-1.33-1.33-1.33ZM15.58,27.24c-.73,0-1.33.6-1.33,1.33s.6,1.33,1.33,1.33,1.33-.6,1.33-1.33-.6-1.33-1.33-1.33ZM15.58,23.09c-.73,0-1.33.6-1.33,1.33s.6,1.33,1.33,1.33,1.33-.6,1.33-1.33-.6-1.33-1.33-1.33ZM15.93,16.78l-.71-1.01c-.08-.11-.05-.26.06-.34.11-.08.27-.06.35.06l.44.61.74-.46c-.18-.49-.67-.85-1.23-.85-.73,0-1.33.6-1.33,1.33s.6,1.33,1.33,1.33,1.3-.56,1.32-1.28l-.97.61ZM15.93,16.78l-.71-1.01c-.08-.11-.05-.26.06-.34.11-.08.27-.06.35.06l.44.61.74-.46c-.18-.49-.67-.85-1.23-.85-.73,0-1.33.6-1.33,1.33s.6,1.33,1.33,1.33,1.3-.56,1.32-1.28l-.97.61ZM15.58,23.09c-.73,0-1.33.6-1.33,1.33s.6,1.33,1.33,1.33,1.33-.6,1.33-1.33-.6-1.33-1.33-1.33ZM15.58,27.24c-.73,0-1.33.6-1.33,1.33s.6,1.33,1.33,1.33,1.33-.6,1.33-1.33-.6-1.33-1.33-1.33ZM15.58,27.24c-.73,0-1.33.6-1.33,1.33s.6,1.33,1.33,1.33,1.33-.6,1.33-1.33-.6-1.33-1.33-1.33ZM15.58,23.09c-.73,0-1.33.6-1.33,1.33s.6,1.33,1.33,1.33,1.33-.6,1.33-1.33-.6-1.33-1.33-1.33ZM15.93,16.78l-.71-1.01c-.08-.11-.05-.26.06-.34.11-.08.27-.06.35.06l.44.61.74-.46c-.18-.49-.67-.85-1.23-.85-.73,0-1.33.6-1.33,1.33s.6,1.33,1.33,1.33,1.3-.56,1.32-1.28l-.97.61ZM15.93,16.78l-.71-1.01c-.08-.11-.05-.26.06-.34.11-.08.27-.06.35.06l.44.61.74-.46c-.18-.49-.67-.85-1.23-.85-.73,0-1.33.6-1.33,1.33s.6,1.33,1.33,1.33,1.3-.56,1.32-1.28l-.97.61ZM15.58,23.09c-.73,0-1.33.6-1.33,1.33s.6,1.33,1.33,1.33,1.33-.6,1.33-1.33-.6-1.33-1.33-1.33ZM15.58,27.24c-.73,0-1.33.6-1.33,1.33s.6,1.33,1.33,1.33,1.33-.6,1.33-1.33-.6-1.33-1.33-1.33ZM15.58,27.24c-.73,0-1.33.6-1.33,1.33s.6,1.33,1.33,1.33,1.33-.6,1.33-1.33-.6-1.33-1.33-1.33ZM15.58,23.09c-.73,0-1.33.6-1.33,1.33s.6,1.33,1.33,1.33,1.33-.6,1.33-1.33-.6-1.33-1.33-1.33ZM15.93,16.78l-.71-1.01c-.08-.11-.05-.26.06-.34.11-.08.27-.06.35.06l.44.61.74-.46c-.18-.49-.67-.85-1.23-.85-.73,0-1.33.6-1.33,1.33s.6,1.33,1.33,1.33,1.3-.56,1.32-1.28l-.97.61ZM15.93,16.78l-.71-1.01c-.08-.11-.05-.26.06-.34.11-.08.27-.06.35.06l.44.61.74-.46c-.18-.49-.67-.85-1.23-.85-.73,0-1.33.6-1.33,1.33s.6,1.33,1.33,1.33,1.3-.56,1.32-1.28l-.97.61ZM15.58,23.09c-.73,0-1.33.6-1.33,1.33s.6,1.33,1.33,1.33,1.33-.6,1.33-1.33-.6-1.33-1.33-1.33ZM15.58,27.24c-.73,0-1.33.6-1.33,1.33s.6,1.33,1.33,1.33,1.33-.6,1.33-1.33-.6-1.33-1.33-1.33ZM15.58,27.24c-.73,0-1.33.6-1.33,1.33s.6,1.33,1.33,1.33,1.33-.6,1.33-1.33-.6-1.33-1.33-1.33ZM15.58,23.09c-.73,0-1.33.6-1.33,1.33s.6,1.33,1.33,1.33,1.33-.6,1.33-1.33-.6-1.33-1.33-1.33ZM15.93,16.78l-.71-1.01c-.08-.11-.05-.26.06-.34.11-.08.27-.06.35.06l.44.61.74-.46c-.18-.49-.67-.85-1.23-.85-.73,0-1.33.6-1.33,1.33s.6,1.33,1.33,1.33,1.3-.56,1.32-1.28l-.97.61ZM15.93,16.78l-.71-1.01c-.08-.11-.05-.26.06-.34.11-.08.27-.06.35.06l.44.61.74-.46c-.18-.49-.67-.85-1.23-.85-.73,0-1.33.6-1.33,1.33s.6,1.33,1.33,1.33,1.3-.56,1.32-1.28l-.97.61ZM15.58,23.09c-.73,0-1.33.6-1.33,1.33s.6,1.33,1.33,1.33,1.33-.6,1.33-1.33-.6-1.33-1.33-1.33ZM15.58,27.24c-.73,0-1.33.6-1.33,1.33s.6,1.33,1.33,1.33,1.33-.6,1.33-1.33-.6-1.33-1.33-1.33ZM15.58,27.24c-.73,0-1.33.6-1.33,1.33s.6,1.33,1.33,1.33,1.33-.6,1.33-1.33-.6-1.33-1.33-1.33ZM15.58,23.09c-.73,0-1.33.6-1.33,1.33s.6,1.33,1.33,1.33,1.33-.6,1.33-1.33-.6-1.33-1.33-1.33ZM15.93,16.78l-.71-1.01c-.08-.11-.05-.26.06-.34.11-.08.27-.06.35.06l.44.61.74-.46c-.18-.49-.67-.85-1.23-.85-.73,0-1.33.6-1.33,1.33s.6,1.33,1.33,1.33,1.3-.56,1.32-1.28l-.97.61ZM15.58,23.09c-.73,0-1.33.6-1.33,1.33s.6,1.33,1.33,1.33,1.33-.6,1.33-1.33-.6-1.33-1.33-1.33ZM15.58,27.24c-.73,0-1.33.6-1.33,1.33s.6,1.33,1.33,1.33,1.33-.6,1.33-1.33-.6-1.33-1.33-1.33ZM15.93,16.78l-.71-1.01c-.08-.11-.05-.26.06-.34.11-.08.27-.06.35.06l.44.61.74-.46c-.18-.49-.67-.85-1.23-.85-.73,0-1.33.6-1.33,1.33s.6,1.33,1.33,1.33,1.3-.56,1.32-1.28l-.97.61ZM15.58,27.24c-.73,0-1.33.6-1.33,1.33s.6,1.33,1.33,1.33,1.33-.6,1.33-1.33-.6-1.33-1.33-1.33ZM15.58,23.09c-.73,0-1.33.6-1.33,1.33s.6,1.33,1.33,1.33,1.33-.6,1.33-1.33-.6-1.33-1.33-1.33ZM15.93,16.78l-.71-1.01c-.08-.11-.05-.26.06-.34.11-.08.27-.06.35.06l.44.61.74-.46c-.18-.49-.67-.85-1.23-.85-.73,0-1.33.6-1.33,1.33s.6,1.33,1.33,1.33,1.3-.56,1.32-1.28l-.97.61ZM15.58,23.09c-.73,0-1.33.6-1.33,1.33s.6,1.33,1.33,1.33,1.33-.6,1.33-1.33-.6-1.33-1.33-1.33ZM15.58,27.24c-.73,0-1.33.6-1.33,1.33s.6,1.33,1.33,1.33,1.33-.6,1.33-1.33-.6-1.33-1.33-1.33ZM15.93,16.78l-.71-1.01c-.08-.11-.05-.26.06-.34.11-.08.27-.06.35.06l.44.61.74-.46c-.18-.49-.67-.85-1.23-.85-.73,0-1.33.6-1.33,1.33s.6,1.33,1.33,1.33,1.3-.56,1.32-1.28l-.97.61ZM15.58,27.24c-.73,0-1.33.6-1.33,1.33s.6,1.33,1.33,1.33,1.33-.6,1.33-1.33-.6-1.33-1.33-1.33ZM15.58,23.09c-.73,0-1.33.6-1.33,1.33s.6,1.33,1.33,1.33,1.33-.6,1.33-1.33-.6-1.33-1.33-1.33ZM15.93,16.78l-.71-1.01c-.08-.11-.05-.26.06-.34.11-.08.27-.06.35.06l.44.61.74-.46c-.18-.49-.67-.85-1.23-.85-.73,0-1.33.6-1.33,1.33s.6,1.33,1.33,1.33,1.3-.56,1.32-1.28l-.97.61ZM15.58,23.09c-.73,0-1.33.6-1.33,1.33s.6,1.33,1.33,1.33,1.33-.6,1.33-1.33-.6-1.33-1.33-1.33ZM15.58,27.24c-.73,0-1.33.6-1.33,1.33s.6,1.33,1.33,1.33,1.33-.6,1.33-1.33-.6-1.33-1.33-1.33ZM15.93,16.78l-.71-1.01c-.08-.11-.05-.26.06-.34.11-.08.27-.06.35.06l.44.61.74-.46c-.18-.49-.67-.85-1.23-.85-.73,0-1.33.6-1.33,1.33s.6,1.33,1.33,1.33,1.3-.56,1.32-1.28l-.97.61ZM24.65,11.63v1.94h-9.31v-1.94h-3.35v19.92h16.02V11.63h-3.36ZM22.4,16.18c0,.14-.11.25-.25.25h-3.99c-.14,0-.25-.11-.25-.25s.11-.25.25-.25h3.99c.14,0,.25.11.25.25ZM15.58,14.29c.74,0,1.37.44,1.67,1.07l1.01-.63c.12-.08.27-.04.35.08.07.11.03.27-.08.34l-1.15.72c.02.08.03.16.03.25,0,1.01-.82,1.83-1.83,1.83s-1.83-.82-1.83-1.83.82-1.83,1.83-1.83ZM15.58,30.4c-1.01,0-1.83-.82-1.83-1.83s.82-1.83,1.83-1.83,1.83.82,1.83,1.83-.82,1.83-1.83,1.83ZM15.58,26.24c-1.01,0-1.83-.82-1.83-1.83s.82-1.83,1.83-1.83,1.83.82,1.83,1.83-.82,1.83-1.83,1.83ZM15.58,22.1c-1.01,0-1.83-.82-1.83-1.83s.82-1.83,1.83-1.83c.72,0,1.35.42,1.64,1.03l1.04-.65c.12-.08.27-.04.35.08.07.11.03.27-.08.34l-1.15.72c.02.1.03.2.03.31,0,1.01-.82,1.83-1.83,1.83ZM22.15,20.27c.14,0,.25.11.25.25s-.11.25-.25.25h-3.99c-.14,0-.25-.11-.25-.25s.11-.25.25-.25h3.99ZM25.93,30.29h-7.77c-.14,0-.25-.12-.25-.25,0-.14.11-.25.25-.25h7.77c.14,0,.25.11.25.25,0,.13-.11.25-.25.25ZM17.91,28.67c0-.14.11-.25.25-.25h3.99c.14,0,.25.11.25.25s-.11.25-.25.25h-3.99c-.14,0-.25-.11-.25-.25ZM25.93,25.96h-7.77c-.14,0-.25-.12-.25-.25,0-.14.11-.25.25-.25h7.77c.14,0,.25.11.25.25,0,.13-.11.25-.25.25ZM17.91,24.35c0-.14.11-.25.25-.25h3.99c.14,0,.25.11.25.25s-.11.25-.25.25h-3.99c-.14,0-.25-.11-.25-.25ZM25.93,22.13h-7.77c-.14,0-.25-.12-.25-.25,0-.14.11-.25.25-.25h7.77c.14,0,.25.11.25.25,0,.13-.11.25-.25.25ZM25.93,17.8h-7.77c-.14,0-.25-.12-.25-.25,0-.14.11-.25.25-.25h7.77c.14,0,.25.11.25.25,0,.13-.11.25-.25.25ZM15.58,17.45c.71,0,1.3-.56,1.32-1.28l-.97.61-.71-1.01c-.08-.11-.05-.26.06-.34.11-.08.27-.06.35.06l.44.61.74-.46c-.18-.49-.67-.85-1.23-.85-.73,0-1.33.6-1.33,1.33s.6,1.33,1.33,1.33ZM15.58,23.09c-.73,0-1.33.6-1.33,1.33s.6,1.33,1.33,1.33,1.33-.6,1.33-1.33-.6-1.33-1.33-1.33ZM15.58,27.24c-.73,0-1.33.6-1.33,1.33s.6,1.33,1.33,1.33,1.33-.6,1.33-1.33-.6-1.33-1.33-1.33ZM15.93,16.78l-.71-1.01c-.08-.11-.05-.26.06-.34.11-.08.27-.06.35.06l.44.61.74-.46c-.18-.49-.67-.85-1.23-.85-.73,0-1.33.6-1.33,1.33s.6,1.33,1.33,1.33,1.3-.56,1.32-1.28l-.97.61ZM15.58,27.24c-.73,0-1.33.6-1.33,1.33s.6,1.33,1.33,1.33,1.33-.6,1.33-1.33-.6-1.33-1.33-1.33ZM15.58,23.09c-.73,0-1.33.6-1.33,1.33s.6,1.33,1.33,1.33,1.33-.6,1.33-1.33-.6-1.33-1.33-1.33ZM15.93,16.78l-.71-1.01c-.08-.11-.05-.26.06-.34.11-.08.27-.06.35.06l.44.61.74-.46c-.18-.49-.67-.85-1.23-.85-.73,0-1.33.6-1.33,1.33s.6,1.33,1.33,1.33,1.3-.56,1.32-1.28l-.97.61ZM15.58,23.09c-.73,0-1.33.6-1.33,1.33s.6,1.33,1.33,1.33,1.33-.6,1.33-1.33-.6-1.33-1.33-1.33ZM15.58,27.24c-.73,0-1.33.6-1.33,1.33s.6,1.33,1.33,1.33,1.33-.6,1.33-1.33-.6-1.33-1.33-1.33ZM15.93,16.78l-.71-1.01c-.08-.11-.05-.26.06-.34.11-.08.27-.06.35.06l.44.61.74-.46c-.18-.49-.67-.85-1.23-.85-.73,0-1.33.6-1.33,1.33s.6,1.33,1.33,1.33,1.3-.56,1.32-1.28l-.97.61ZM15.58,27.24c-.73,0-1.33.6-1.33,1.33s.6,1.33,1.33,1.33,1.33-.6,1.33-1.33-.6-1.33-1.33-1.33ZM15.58,23.09c-.73,0-1.33.6-1.33,1.33s.6,1.33,1.33,1.33,1.33-.6,1.33-1.33-.6-1.33-1.33-1.33ZM15.93,16.78l-.71-1.01c-.08-.11-.05-.26.06-.34.11-.08.27-.06.35.06l.44.61.74-.46c-.18-.49-.67-.85-1.23-.85-.73,0-1.33.6-1.33,1.33s.6,1.33,1.33,1.33,1.3-.56,1.32-1.28l-.97.61ZM15.58,23.09c-.73,0-1.33.6-1.33,1.33s.6,1.33,1.33,1.33,1.33-.6,1.33-1.33-.6-1.33-1.33-1.33ZM15.58,27.24c-.73,0-1.33.6-1.33,1.33s.6,1.33,1.33,1.33,1.33-.6,1.33-1.33-.6-1.33-1.33-1.33ZM15.58,27.24c-.73,0-1.33.6-1.33,1.33s.6,1.33,1.33,1.33,1.33-.6,1.33-1.33-.6-1.33-1.33-1.33ZM15.58,23.09c-.73,0-1.33.6-1.33,1.33s.6,1.33,1.33,1.33,1.33-.6,1.33-1.33-.6-1.33-1.33-1.33ZM15.93,16.78l-.71-1.01c-.08-.11-.05-.26.06-.34.11-.08.27-.06.35.06l.44.61.74-.46c-.18-.49-.67-.85-1.23-.85-.73,0-1.33.6-1.33,1.33s.6,1.33,1.33,1.33,1.3-.56,1.32-1.28l-.97.61ZM15.93,16.78l-.71-1.01c-.08-.11-.05-.26.06-.34.11-.08.27-.06.35.06l.44.61.74-.46c-.18-.49-.67-.85-1.23-.85-.73,0-1.33.6-1.33,1.33s.6,1.33,1.33,1.33,1.3-.56,1.32-1.28l-.97.61ZM15.58,23.09c-.73,0-1.33.6-1.33,1.33s.6,1.33,1.33,1.33,1.33-.6,1.33-1.33-.6-1.33-1.33-1.33ZM15.58,27.24c-.73,0-1.33.6-1.33,1.33s.6,1.33,1.33,1.33,1.33-.6,1.33-1.33-.6-1.33-1.33-1.33ZM15.58,27.24c-.73,0-1.33.6-1.33,1.33s.6,1.33,1.33,1.33,1.33-.6,1.33-1.33-.6-1.33-1.33-1.33ZM15.58,23.09c-.73,0-1.33.6-1.33,1.33s.6,1.33,1.33,1.33,1.33-.6,1.33-1.33-.6-1.33-1.33-1.33ZM15.93,16.78l-.71-1.01c-.08-.11-.05-.26.06-.34.11-.08.27-.06.35.06l.44.61.74-.46c-.18-.49-.67-.85-1.23-.85-.73,0-1.33.6-1.33,1.33s.6,1.33,1.33,1.33,1.3-.56,1.32-1.28l-.97.61ZM15.93,16.78l-.71-1.01c-.08-.11-.05-.26.06-.34.11-.08.27-.06.35.06l.44.61.74-.46c-.18-.49-.67-.85-1.23-.85-.73,0-1.33.6-1.33,1.33s.6,1.33,1.33,1.33,1.3-.56,1.32-1.28l-.97.61ZM15.58,23.09c-.73,0-1.33.6-1.33,1.33s.6,1.33,1.33,1.33,1.33-.6,1.33-1.33-.6-1.33-1.33-1.33ZM15.58,27.24c-.73,0-1.33.6-1.33,1.33s.6,1.33,1.33,1.33,1.33-.6,1.33-1.33-.6-1.33-1.33-1.33ZM15.58,27.24c-.73,0-1.33.6-1.33,1.33s.6,1.33,1.33,1.33,1.33-.6,1.33-1.33-.6-1.33-1.33-1.33ZM15.58,23.09c-.73,0-1.33.6-1.33,1.33s.6,1.33,1.33,1.33,1.33-.6,1.33-1.33-.6-1.33-1.33-1.33ZM15.93,16.78l-.71-1.01c-.08-.11-.05-.26.06-.34.11-.08.27-.06.35.06l.44.61.74-.46c-.18-.49-.67-.85-1.23-.85-.73,0-1.33.6-1.33,1.33s.6,1.33,1.33,1.33,1.3-.56,1.32-1.28l-.97.61ZM15.93,16.78l-.71-1.01c-.08-.11-.05-.26.06-.34.11-.08.27-.06.35.06l.44.61.74-.46c-.18-.49-.67-.85-1.23-.85-.73,0-1.33.6-1.33,1.33s.6,1.33,1.33,1.33,1.3-.56,1.32-1.28l-.97.61ZM15.58,23.09c-.73,0-1.33.6-1.33,1.33s.6,1.33,1.33,1.33,1.33-.6,1.33-1.33-.6-1.33-1.33-1.33ZM15.58,27.24c-.73,0-1.33.6-1.33,1.33s.6,1.33,1.33,1.33,1.33-.6,1.33-1.33-.6-1.33-1.33-1.33ZM15.58,27.24c-.73,0-1.33.6-1.33,1.33s.6,1.33,1.33,1.33,1.33-.6,1.33-1.33-.6-1.33-1.33-1.33ZM15.58,23.09c-.73,0-1.33.6-1.33,1.33s.6,1.33,1.33,1.33,1.33-.6,1.33-1.33-.6-1.33-1.33-1.33ZM15.93,16.78l-.71-1.01c-.08-.11-.05-.26.06-.34.11-.08.27-.06.35.06l.44.61.74-.46c-.18-.49-.67-.85-1.23-.85-.73,0-1.33.6-1.33,1.33s.6,1.33,1.33,1.33,1.3-.56,1.32-1.28l-.97.61ZM15.93,16.78l-.71-1.01c-.08-.11-.05-.26.06-.34.11-.08.27-.06.35.06l.44.61.74-.46c-.18-.49-.67-.85-1.23-.85-.73,0-1.33.6-1.33,1.33s.6,1.33,1.33,1.33,1.3-.56,1.32-1.28l-.97.61ZM15.58,23.09c-.73,0-1.33.6-1.33,1.33s.6,1.33,1.33,1.33,1.33-.6,1.33-1.33-.6-1.33-1.33-1.33ZM15.58,27.24c-.73,0-1.33.6-1.33,1.33s.6,1.33,1.33,1.33,1.33-.6,1.33-1.33-.6-1.33-1.33-1.33ZM15.58,27.24c-.73,0-1.33.6-1.33,1.33s.6,1.33,1.33,1.33,1.33-.6,1.33-1.33-.6-1.33-1.33-1.33ZM15.58,23.09c-.73,0-1.33.6-1.33,1.33s.6,1.33,1.33,1.33,1.33-.6,1.33-1.33-.6-1.33-1.33-1.33ZM15.93,16.78l-.71-1.01c-.08-.11-.05-.26.06-.34.11-.08.27-.06.35.06l.44.61.74-.46c-.18-.49-.67-.85-1.23-.85-.73,0-1.33.6-1.33,1.33s.6,1.33,1.33,1.33,1.3-.56,1.32-1.28l-.97.61ZM15.93,16.78l-.71-1.01c-.08-.11-.05-.26.06-.34.11-.08.27-.06.35.06l.44.61.74-.46c-.18-.49-.67-.85-1.23-.85-.73,0-1.33.6-1.33,1.33s.6,1.33,1.33,1.33,1.3-.56,1.32-1.28l-.97.61ZM15.58,23.09c-.73,0-1.33.6-1.33,1.33s.6,1.33,1.33,1.33,1.33-.6,1.33-1.33-.6-1.33-1.33-1.33ZM15.58,27.24c-.73,0-1.33.6-1.33,1.33s.6,1.33,1.33,1.33,1.33-.6,1.33-1.33-.6-1.33-1.33-1.33ZM15.58,27.24c-.73,0-1.33.6-1.33,1.33s.6,1.33,1.33,1.33,1.33-.6,1.33-1.33-.6-1.33-1.33-1.33ZM15.58,23.09c-.73,0-1.33.6-1.33,1.33s.6,1.33,1.33,1.33,1.33-.6,1.33-1.33-.6-1.33-1.33-1.33ZM15.93,16.78l-.71-1.01c-.08-.11-.05-.26.06-.34.11-.08.27-.06.35.06l.44.61.74-.46c-.18-.49-.67-.85-1.23-.85-.73,0-1.33.6-1.33,1.33s.6,1.33,1.33,1.33,1.3-.56,1.32-1.28l-.97.61ZM15.93,16.78l-.71-1.01c-.08-.11-.05-.26.06-.34.11-.08.27-.06.35.06l.44.61.74-.46c-.18-.49-.67-.85-1.23-.85-.73,0-1.33.6-1.33,1.33s.6,1.33,1.33,1.33,1.3-.56,1.32-1.28l-.97.61ZM15.58,23.09c-.73,0-1.33.6-1.33,1.33s.6,1.33,1.33,1.33,1.33-.6,1.33-1.33-.6-1.33-1.33-1.33ZM15.58,27.24c-.73,0-1.33.6-1.33,1.33s.6,1.33,1.33,1.33,1.33-.6,1.33-1.33-.6-1.33-1.33-1.33ZM15.58,27.24c-.73,0-1.33.6-1.33,1.33s.6,1.33,1.33,1.33,1.33-.6,1.33-1.33-.6-1.33-1.33-1.33ZM15.58,23.09c-.73,0-1.33.6-1.33,1.33s.6,1.33,1.33,1.33,1.33-.6,1.33-1.33-.6-1.33-1.33-1.33ZM15.93,16.78l-.71-1.01c-.08-.11-.05-.26.06-.34.11-.08.27-.06.35.06l.44.61.74-.46c-.18-.49-.67-.85-1.23-.85-.73,0-1.33.6-1.33,1.33s.6,1.33,1.33,1.33,1.3-.56,1.32-1.28l-.97.61ZM15.93,16.78l-.71-1.01c-.08-.11-.05-.26.06-.34.11-.08.27-.06.35.06l.44.61.74-.46c-.18-.49-.67-.85-1.23-.85-.73,0-1.33.6-1.33,1.33s.6,1.33,1.33,1.33,1.3-.56,1.32-1.28l-.97.61ZM15.58,23.09c-.73,0-1.33.6-1.33,1.33s.6,1.33,1.33,1.33,1.33-.6,1.33-1.33-.6-1.33-1.33-1.33ZM15.58,27.24c-.73,0-1.33.6-1.33,1.33s.6,1.33,1.33,1.33,1.33-.6,1.33-1.33-.6-1.33-1.33-1.33ZM15.58,23.09c-.73,0-1.33.6-1.33,1.33s.6,1.33,1.33,1.33,1.33-.6,1.33-1.33-.6-1.33-1.33-1.33ZM15.93,16.78l-.71-1.01c-.08-.11-.05-.26.06-.34.11-.08.27-.06.35.06l.44.61.74-.46c-.18-.49-.67-.85-1.23-.85-.73,0-1.33.6-1.33,1.33s.6,1.33,1.33,1.33,1.3-.56,1.32-1.28l-.97.61ZM15.93,16.78l-.71-1.01c-.08-.11-.05-.26.06-.34.11-.08.27-.06.35.06l.44.61.74-.46c-.18-.49-.67-.85-1.23-.85-.73,0-1.33.6-1.33,1.33s.6,1.33,1.33,1.33,1.3-.56,1.32-1.28l-.97.61ZM15.58,23.09c-.73,0-1.33.6-1.33,1.33s.6,1.33,1.33,1.33,1.33-.6,1.33-1.33-.6-1.33-1.33-1.33Z"/>
  <path class="cls-2" d="M24.15,10.2v2.87h-8.31v-2.87h2.41c0-.96.78-1.74,1.75-1.74s1.74.78,1.74,1.74h2.41Z"/>
</svg>