<?xml version="1.0" encoding="UTF-8"?>
<svg version="1.1" xmlns="http://www.w3.org/2000/svg" width="512" height="512">
<path d="M0 0 C0.97389175 0.85050934 1.94778351 1.70101868 2.95118713 2.57730103 C6.34389696 5.48552008 9.84190631 8.22170528 13.39215755 10.93381405 C26.37290166 20.8744109 38.8046579 31.42344712 50.9375 42.375 C51.44975333 42.83588973 51.96200665 43.29677945 52.48978281 43.77163553 C78.48945936 67.23058605 97.72835231 89.32124337 99.75 125.47265625 C100.31153226 136.48419241 100.04455775 147.4345645 99.4375 158.4375 C99.40087926 159.11768409 99.36425853 159.79786818 99.32652807 160.4986639 C98.36017083 178.09306313 96.59701528 195.56959758 94 213 C94.61646896 213.13223528 95.23293793 213.26447056 95.86808777 213.40071297 C96.67756363 213.57689596 97.48703949 213.75307896 98.32104492 213.93460083 C99.12313889 214.10808611 99.92523285 214.28157139 100.75163269 214.4603138 C105.44438991 215.58673843 109.67368892 217.78429639 114 219.875 C115.50687378 220.60203125 115.50687378 220.60203125 117.04418945 221.34375 C131.42422975 228.48172243 143.55202636 237.82459716 155 249 C155.763125 249.70125 156.52625 250.4025 157.3125 251.125 C184.27687949 276.5485578 198.94226638 314.78806622 200.22265625 351.37890625 C201.14981843 393.61150302 187.05152737 432.34689853 157.8671875 463.0625 C131.58303424 490.18760303 95.17788599 508.64051453 56.92578125 509.30078125 C54.05436508 509.32989194 51.18399915 509.32736423 48.3125 509.3125 C47.56232605 509.31034485 46.8121521 509.3081897 46.03924561 509.30596924 C34.78343923 509.25410745 23.9402052 508.82070278 13 506 C12.23187988 505.81195801 11.46375977 505.62391602 10.67236328 505.43017578 C1.91143843 503.23514239 -6.15407451 500.59650136 -14.06445241 496.2006188 C-27.17291994 489.11044757 -38.8181305 488.61338039 -53.46582031 488.82055664 C-55.94690182 488.81842061 -58.4279828 488.81183001 -60.90904236 488.80117798 C-66.2065345 488.78796409 -71.5025895 488.80453512 -76.79981232 488.8491993 C-84.46783155 488.91352876 -92.13505229 488.91856235 -99.80329534 488.90960806 C-112.26344194 488.89634557 -124.72309981 488.92509155 -137.18310547 488.9831543 C-149.24918278 489.03924891 -161.31515509 489.082753 -173.38134766 489.10424805 C-174.49900375 489.10625272 -174.49900375 489.10625272 -175.63923874 489.10829789 C-183.78039805 489.12246252 -191.92155516 489.13219126 -200.06272507 489.13734341 C-200.77870636 489.1378082 -201.49468766 489.138273 -202.23236535 489.13875188 C-205.09482253 489.14056791 -207.95727957 489.14236327 -210.81973705 489.14362305 C-219.17606242 489.14745052 -227.53209784 489.16483875 -235.88832167 489.20711904 C-241.74107443 489.23645259 -247.59380836 489.2519892 -253.44662666 489.26279068 C-255.84237147 489.26995824 -258.23810728 489.28235651 -260.63379478 489.30040932 C-263.90737629 489.32452958 -267.180504 489.33013171 -270.4541626 489.33143616 C-271.39803243 489.34310493 -272.34190226 489.3547737 -273.31437421 489.36679608 C-280.80228504 489.33900327 -286.97076673 487.94328172 -293.3125 483.875 C-301.41186547 475.21056252 -300.5699616 464.90636894 -300.5146637 453.74940491 C-300.5199918 451.87609941 -300.52705901 450.00279819 -300.53571075 448.1295051 C-300.55432979 442.99273874 -300.54803556 437.85626084 -300.53755772 432.71948254 C-300.53056368 427.17540486 -300.54656521 421.63138632 -300.55955505 416.08732605 C-300.58119672 405.23054452 -300.58106772 394.3738678 -300.57292951 383.51707179 C-300.56662962 374.69299054 -300.56776645 365.86893986 -300.57420158 357.04485893 C-300.57510324 355.78895157 -300.57600489 354.5330442 -300.57693387 353.23907904 C-300.57878507 350.68771215 -300.58064763 348.13634527 -300.58252143 345.58497839 C-300.59439146 328.4553787 -300.59880054 311.32579074 -300.5875864 294.19619083 C-300.58714843 293.5266186 -300.58671046 292.85704637 -300.58625922 292.16718408 C-300.58265252 286.7300463 -300.57881768 281.29290869 -300.57496829 275.85577108 C-300.56012064 254.64704509 -300.5689015 233.43844789 -300.59692383 212.22973633 C-300.62836003 188.39174617 -300.64325125 164.55383175 -300.63312382 140.71581358 C-300.63210126 138.17352801 -300.63110665 135.63124243 -300.6301403 133.08895683 C-300.62966391 131.83811278 -300.62918752 130.58726873 -300.6286967 129.29852032 C-300.62653239 120.48604318 -300.63633757 111.67362602 -300.65091133 102.86116219 C-300.6684267 92.12015074 -300.66832857 81.37931432 -300.64555968 70.63830978 C-300.63441047 65.15855513 -300.6312707 59.67910892 -300.64986038 54.19936752 C-300.66666489 49.18126826 -300.66031411 44.1637465 -300.63564359 39.14568465 C-300.63075987 37.33219674 -300.63427716 35.51866225 -300.64713103 33.70521332 C-300.77049804 14.94371323 -300.77049804 14.94371323 -295 8 C-289.72250051 2.75248557 -284.67533779 1.31176753 -277.35275739 1.22551215 C-276.26616175 1.2429892 -275.17956612 1.26046624 -274.06004333 1.2784729 C-272.88445754 1.27334635 -271.70887174 1.2682198 -270.49766213 1.2629379 C-267.25660178 1.25480045 -264.01700222 1.27340573 -260.77611434 1.30360627 C-257.27317465 1.3296278 -253.77029743 1.32074105 -250.26728821 1.31619263 C-244.2054951 1.31305344 -238.14409086 1.33180509 -232.08239555 1.36561966 C-223.31837792 1.41447692 -214.55454744 1.43001799 -205.79040838 1.43754761 C-191.56971983 1.45066456 -177.34923831 1.49055381 -163.12866211 1.54736328 C-149.31845126 1.60247587 -135.50829673 1.64492756 -121.69799805 1.67041016 C-120.84608182 1.6719865 -119.9941656 1.67356284 -119.11643373 1.67518695 C-114.84242542 1.68301743 -110.5684167 1.69059962 -106.29440773 1.69805837 C-70.86279093 1.76021254 -35.4314146 1.86585095 0 2 C0 1.34 0 0.68 0 0 Z " fill="#E9E9E9" transform="translate(306,3)"/>
<path d="M0 0 C1.34942199 -0.00761181 1.34942199 -0.00761181 2.72610503 -0.0153774 C3.72073341 -0.01587516 4.71536179 -0.01637292 5.74013042 -0.01688576 C6.79186795 -0.02126801 7.84360548 -0.02565027 8.92721385 -0.03016531 C12.47477369 -0.04359062 16.02230867 -0.04974051 19.56988811 -0.0558567 C22.10391128 -0.06375464 24.63793332 -0.07202339 27.17195415 -0.08063698 C34.79300593 -0.10462299 42.41405649 -0.11978897 50.03513411 -0.13269705 C52.18692133 -0.13640811 54.33870791 -0.1403814 56.49049449 -0.14444971 C69.84727636 -0.16968396 83.20405923 -0.19174126 96.56085968 -0.20417786 C99.65534055 -0.20710764 102.74982139 -0.2100693 105.84430218 -0.21308327 C106.99800626 -0.21420234 106.99800626 -0.21420234 108.1750175 -0.21534403 C120.63904525 -0.22800202 133.10293049 -0.26123052 145.56689159 -0.3028851 C158.35759038 -0.34528197 171.14821616 -0.36887023 183.93898505 -0.37409842 C191.12292779 -0.37751498 198.30664777 -0.38929869 205.49052143 -0.42220116 C212.24649413 -0.4530928 219.00201019 -0.45863124 225.75806522 -0.4468174 C228.24093224 -0.44659579 230.72381676 -0.45497248 233.20662212 -0.47247124 C236.59025448 -0.49502545 239.97245952 -0.48693054 243.35609722 -0.47098732 C244.34403343 -0.48486941 245.33196965 -0.49875149 246.34984332 -0.51305425 C250.95224473 -0.45943481 253.06924347 -0.36007889 256.85624504 2.45235825 C259.31328043 5.95665623 259.34908236 7.93987451 258.73858929 12.13701439 C257.20733929 14.35185814 257.20733929 14.35185814 255.73858929 16.13701439 C256.67952435 16.12130394 257.6204594 16.10559349 258.58990765 16.08940697 C292.9259506 15.5912958 292.9259506 15.5912958 306.73858929 19.13701439 C308.29287736 19.49422561 309.84758952 19.84959496 311.40265179 20.20342064 C322.07643958 22.72588894 331.90421209 26.30169091 341.73858929 31.13701439 C342.85749554 31.68228783 343.97640179 32.22756126 345.12921429 32.78935814 C358.56825259 39.68741524 369.91483301 48.70037386 380.73858929 59.13701439 C381.50558147 59.84084251 382.27257366 60.54467064 383.06280804 61.26982689 C410.0100946 86.71735423 424.68045915 124.9137488 425.96124554 161.51592064 C426.88840772 203.74851741 412.79011666 242.48391292 383.60577679 273.19951439 C357.32162352 300.32461742 320.91647528 318.77752892 282.66437054 319.43779564 C279.79295436 319.46690633 276.92258844 319.46437862 274.05108929 319.44951439 C273.30091534 319.44735924 272.55074139 319.44520409 271.77783489 319.44298363 C260.52202851 319.39112184 249.67879449 318.95771717 238.73858929 316.13701439 C237.97046917 315.9489724 237.20234905 315.7609304 236.41095257 315.56719017 C218.48554668 311.07601313 201.1768216 303.80904331 186.73858929 292.13701439 C185.2806596 291.08707298 185.2806596 291.08707298 183.79327679 290.01592064 C169.45609553 279.57126648 157.22899751 266.96333392 147.35187054 252.23467064 C146.94096141 251.62500545 146.53005228 251.01534025 146.10669136 250.38720036 C144.73858929 248.13701439 144.73858929 248.13701439 143.65676498 245.58970165 C142.29179746 242.63376986 141.00993222 240.4822666 138.73858929 238.13701439 C134.1498495 236.66429442 129.70185171 236.86415572 124.91803265 236.98930931 C123.50655586 236.99045402 122.09506943 236.9871225 120.68361187 236.97966576 C117.65105879 236.97313525 114.62097577 236.99795613 111.58882236 237.04734421 C106.79374753 237.12510032 102.00015484 237.13182238 97.20454693 237.12903404 C89.6205586 237.13290701 82.03772331 237.1833409 74.45409065 237.25415069 C60.87154579 237.38058157 47.28887073 237.4510693 33.70575529 237.46978647 C28.93975091 237.47850152 24.17501077 237.51512496 19.40937507 237.57429445 C16.44497662 237.60668876 13.48073138 237.61885305 10.51617527 237.62602043 C8.48810457 237.63741885 6.46022513 237.67408252 4.43246746 237.71149254 C-5.47747858 237.70464578 -5.47747858 237.70464578 -8.5819521 234.79321861 C-10.65697072 231.51140316 -10.97655617 229.95112351 -10.26141071 226.13701439 C-8.1105062 222.79940394 -7.05728272 221.40230506 -3.26141071 220.13701439 C-1.44725904 220.0463405 0.37009557 220.0150607 2.18651104 220.01675987 C3.31813168 220.01538521 4.44975231 220.01401054 5.61566448 220.01259422 C6.85787762 220.0161895 8.10009075 220.01978477 9.37994671 220.023489 C11.34107151 220.02326996 11.34107151 220.02326996 13.34181499 220.02304649 C16.92831353 220.02275924 20.51477871 220.02864432 24.10126948 220.03562045 C27.84888939 220.04186599 31.59651003 220.04245874 35.34413433 220.04364586 C42.44140165 220.04675562 49.5386536 220.05496425 56.63591415 220.06499535 C64.71563439 220.07616748 72.79535537 220.08166971 80.87508142 220.08669078 C97.49625972 220.09714714 114.11742254 220.11473974 130.73858929 220.13701439 C130.39346798 219.05157845 130.04834667 217.9661425 129.69276714 216.84781456 C129.23631729 215.40250611 128.78000006 213.95715578 128.32379436 212.51177025 C127.98321373 211.44244381 127.98321373 211.44244381 127.63575268 210.35151482 C125.80246228 204.52861893 124.43791694 198.72229802 123.42608929 192.69951439 C123.25786663 191.81715111 123.08964397 190.93478783 122.91632366 190.02568626 C121.88252453 184.06340798 121.64835647 178.28589483 121.69488811 172.25395775 C121.69804279 171.47078934 121.70119747 170.68762093 121.70444775 169.88072014 C121.71261706 167.96613516 121.72515519 166.05156966 121.73858929 164.13701439 C121.09382798 164.14070156 120.44906668 164.14438873 119.78476715 164.14818764 C104.09406834 164.23653688 88.40345607 164.30272299 72.71257019 164.34426308 C65.12455403 164.36488568 57.53670393 164.3930003 49.94879436 164.4387722 C43.33492315 164.47864947 36.72117221 164.50444941 30.10718411 164.51336837 C26.6052799 164.5185817 23.10371975 164.53082798 19.60192585 164.55993462 C15.69209261 164.59216904 11.78259555 164.59297322 7.87262249 164.59111595 C6.71240582 164.60549706 5.55218914 164.61987816 4.35681438 164.63469505 C-3.49370411 164.59424049 -3.49370411 164.59424049 -7.45728779 162.23363304 C-9.60875581 159.73335553 -10.19887369 158.60604204 -10.63641071 155.32451439 C-10.24398707 151.98891342 -9.57730825 150.46469331 -7.12190914 148.17623901 C-2.85602596 145.79343085 2.40409507 146.49762046 7.14801311 146.56938744 C9.03642422 146.56829224 9.03642422 146.56829224 10.96298504 146.56717491 C14.4071528 146.56574245 17.85044689 146.59510284 21.2944119 146.6300447 C24.89650189 146.66133755 28.49861273 146.66424121 32.10081768 146.67017174 C38.91841769 146.68570171 45.735616 146.72671825 52.55303925 146.77691919 C60.31594945 146.83283937 68.078879 146.8603058 75.84194052 146.88539636 C91.80772262 146.93763524 107.77310412 147.02556051 123.73858929 147.13701439 C123.79845013 146.40531029 123.85831097 145.67360619 123.91998577 144.91972923 C124.04482342 143.46107445 124.04482342 143.46107445 124.17218304 141.97295189 C124.25266888 141.01437279 124.33315472 140.05579369 124.41607952 139.06816673 C125.39011356 130.21559086 128.39649505 121.99681863 131.48858929 113.69951439 C131.79933392 112.85405052 132.11007854 112.00858665 132.43023968 111.13750267 C134.40648984 105.97808694 136.74078058 101.15089441 139.3840971 96.2969265 C140.32711681 94.56073303 140.32711681 94.56073303 141.28918743 92.78946495 C141.76749004 91.91415627 142.24579266 91.03884758 142.73858929 90.13701439 C141.98044587 90.14162335 141.22230246 90.14623232 140.441185 90.15098095 C121.99660091 90.26138732 103.55208275 90.34413546 85.10723877 90.39607525 C76.1874413 90.42186041 67.26786436 90.45701676 58.34820843 90.51421165 C50.57410717 90.56403724 42.80016562 90.59630314 35.02590913 90.60745686 C30.90915037 90.61397713 26.79284851 90.62930751 22.67623615 90.66566467 C18.80116776 90.69961118 14.92674429 90.71007033 11.05154133 90.7025528 C9.62971777 90.70392797 8.20787258 90.71386931 6.78617764 90.73304176 C4.84378208 90.75795058 2.90104021 90.74894976 0.95851421 90.73828697 C-0.12827971 90.74289594 -1.21507364 90.7475049 -2.33480072 90.75225353 C-6.25908114 89.92728166 -7.77255902 88.20970606 -10.26141071 85.13701439 C-11.00604311 81.16564158 -10.63407949 79.69601756 -8.38641071 76.32451439 C-5.87673515 73.74102484 -5.09951453 73.17458508 -1.51653576 73.01396656 C0.25054139 73.01534925 0.25054139 73.01534925 2.05331707 73.01675987 C2.7083943 73.01590545 3.36347152 73.01505102 4.03839958 73.01417071 C6.2433405 73.01251768 8.4482061 73.01803438 10.65314007 73.023489 C12.22976969 73.02377093 13.80639944 73.02361301 15.38302898 73.02304649 C19.67204139 73.02275877 23.96102602 73.02865148 28.25003195 73.03562045 C32.72903491 73.04185813 37.20803846 73.04245812 41.6870451 73.04364586 C50.17265042 73.04675795 58.65824291 73.0549697 67.14384258 73.06499535 C76.8027119 73.07616027 86.46158182 73.08166789 96.12045598 73.08669078 C115.99317425 73.0971524 135.86588096 73.11474949 155.73858929 73.13701439 C156.01839642 72.53719749 156.29820354 71.9373806 156.58648968 71.31938744 C169.73821156 46.4066428 204.06838371 30.37888561 229.55108929 22.23857689 C234.57431084 20.6917922 239.63951917 19.40708754 244.73858929 18.13701439 C243.45991891 18.13554783 242.18124853 18.13408127 240.86383057 18.13257027 C210.51932835 18.09687795 180.17494161 18.04065086 149.83053063 17.95909344 C146.09667753 17.94907583 142.36282399 17.93923173 138.62897015 17.92949486 C137.88561862 17.92755348 137.14226709 17.92561211 136.37638976 17.92361191 C124.33586653 17.89258018 112.29536237 17.87560799 100.25480668 17.86382017 C87.90256252 17.85141467 75.55041853 17.82392692 63.1982376 17.78240132 C55.57458602 17.75724859 47.95110051 17.74389839 40.32740685 17.74558482 C34.48421314 17.74561805 28.64121358 17.72467997 22.79808712 17.69584656 C20.39910419 17.68730942 18.00008586 17.6856233 15.60109425 17.6912117 C12.33131048 17.69781553 9.06254589 17.68001675 5.7928648 17.65599632 C4.83858288 17.66375674 3.88430096 17.67151716 2.90110141 17.67951274 C-1.28854894 17.62484471 -3.65904681 17.49457716 -7.32339668 15.31942177 C-10.0383755 12.26207043 -10.3325417 10.19148089 -10.26141071 6.13701439 C-7.34798712 1.51572179 -5.34339846 0.01596051 0 0 Z " fill="#47B1E5" transform="translate(80.2614107131958,192.8629856109619)"/>
<path d="M0 0 C1.34942199 -0.00761181 1.34942199 -0.00761181 2.72610503 -0.0153774 C3.72073341 -0.01587516 4.71536179 -0.01637292 5.74013042 -0.01688576 C6.79186795 -0.02126801 7.84360548 -0.02565027 8.92721385 -0.03016531 C12.47477369 -0.04359062 16.02230867 -0.04974051 19.56988811 -0.0558567 C22.10391128 -0.06375464 24.63793332 -0.07202339 27.17195415 -0.08063698 C34.79300593 -0.10462299 42.41405649 -0.11978897 50.03513411 -0.13269705 C52.18692133 -0.13640811 54.33870791 -0.1403814 56.49049449 -0.14444971 C69.84727636 -0.16968396 83.20405923 -0.19174126 96.56085968 -0.20417786 C99.65534055 -0.20710764 102.74982139 -0.2100693 105.84430218 -0.21308327 C106.99800626 -0.21420234 106.99800626 -0.21420234 108.1750175 -0.21534403 C120.63904525 -0.22800202 133.10293049 -0.26123052 145.56689159 -0.3028851 C158.35759038 -0.34528197 171.14821616 -0.36887023 183.93898505 -0.37409842 C191.12292779 -0.37751498 198.30664777 -0.38929869 205.49052143 -0.42220116 C212.24649413 -0.4530928 219.00201019 -0.45863124 225.75806522 -0.4468174 C228.24093224 -0.44659579 230.72381676 -0.45497248 233.20662212 -0.47247124 C236.59025448 -0.49502545 239.97245952 -0.48693054 243.35609722 -0.47098732 C244.34403343 -0.48486941 245.33196965 -0.49875149 246.34984332 -0.51305425 C250.95265222 -0.45943006 253.06643532 -0.36426269 256.84843254 2.4562645 C258.73858929 5.13701439 258.73858929 5.13701439 259.36358929 8.63701439 C258.5505557 13.19000248 257.43863416 14.37498363 253.73858929 17.13701439 C250.28598098 17.87224993 246.89545195 17.80745151 243.3762846 17.76520348 C242.3219838 17.77229786 241.26768299 17.77939225 240.18143368 17.78670162 C236.64282488 17.80432676 233.10530787 17.78615264 229.56671429 17.7681179 C227.03224467 17.77325495 224.49777862 17.7805346 221.96332073 17.78980064 C215.79057673 17.80642269 209.61823861 17.79966201 203.44550991 17.78171242 C198.42896318 17.76768794 193.41250238 17.76379327 188.39593792 17.76715469 C187.32505472 17.76787086 187.32505472 17.76787086 186.23253751 17.76860149 C184.78222781 17.76962782 183.33191814 17.77068317 181.88160849 17.77176725 C169.05652833 17.78033529 156.231601 17.76365604 143.40655804 17.73393822 C130.96118023 17.70510052 118.51602259 17.6980171 106.07062054 17.7134304 C92.51910726 17.73019061 78.96769852 17.73422865 65.41618252 17.71672004 C63.97120191 17.71487565 62.52622129 17.71304093 61.08124065 17.71121597 C60.3702787 17.71030388 59.65931675 17.70939179 58.9268105 17.70845206 C53.9161762 17.70284553 48.9055929 17.70615493 43.89496136 17.71276093 C37.15125168 17.72129881 30.40790707 17.70834029 23.66423321 17.68091202 C21.18622564 17.67401333 18.70818846 17.67394599 16.23018169 17.68112755 C12.8533952 17.68978765 9.47759759 17.67392315 6.10089397 17.65167809 C5.11500412 17.65991885 4.12911427 17.66815962 3.11334896 17.67665011 C-1.14588033 17.62468978 -3.61496342 17.51829082 -7.34264851 15.31969166 C-10.03417991 12.25795509 -10.3323438 10.18020044 -10.26141071 6.13701439 C-7.34798712 1.51572179 -5.34339846 0.01596051 0 0 Z " fill="#929292" transform="translate(80.2614107131958,192.8629856109619)"/>
<path d="M0 0 C5.50835668 4.59383615 10.6205012 9.47228877 15.68920898 14.54394531 C16.52903824 15.38041595 17.36886749 16.2168866 18.23414612 17.07870483 C20.51659663 19.35333186 22.7967971 21.63018144 25.07565951 23.90840244 C26.50047915 25.33250821 27.92600972 26.75589834 29.35179329 28.179039 C34.32746197 33.14548854 39.30057397 38.11448142 44.27124023 43.0859375 C48.90483008 47.72013068 53.54399792 52.34868814 58.18575042 56.97470403 C62.17667887 60.95258324 66.16376935 64.93428145 70.1478582 68.91901088 C72.52529435 71.29670232 74.9042674 73.67280522 77.28710747 76.04508209 C79.93499718 78.68324104 82.57655528 81.32757947 85.21655273 83.97363281 C86.00971893 84.7611795 86.80288513 85.5487262 87.62008667 86.36013794 C88.3335878 87.07783356 89.04708893 87.79552917 89.7822113 88.53497314 C90.40731315 89.15953022 91.03241499 89.7840873 91.67645931 90.42757034 C93 92 93 92 93 94 C85.76602587 94.26482439 78.53192335 94.52581868 71.29764843 94.78230286 C67.93623703 94.90159082 64.57489907 95.02243105 61.21362305 95.14550781 C53.60286439 95.42375976 45.9920366 95.68117497 38.3793335 95.90039062 C36.23824164 95.96350154 34.09729271 96.0318626 31.956604 96.10742188 C29.34216659 96.19672452 26.72866739 96.25947104 24.11328125 96.3125 C23.39013229 96.342229 22.66698334 96.37195801 21.92192078 96.40258789 C15.67793592 96.47337979 10.68727507 94.27225189 5.9765625 90.2890625 C5.53054688 89.73992187 5.08453125 89.19078125 4.625 88.625 C4.16351563 88.08101563 3.70203125 87.53703125 3.2265625 86.9765625 C0.09698237 81.93335376 -0.28514972 76.86128688 -0.22705078 71.06689453 C-0.22734283 70.2954863 -0.22763489 69.52407806 -0.22793579 68.72929382 C-0.22655011 66.1970162 -0.21102512 63.66503828 -0.1953125 61.1328125 C-0.19157966 59.37019003 -0.18873396 57.60756548 -0.18673706 55.84494019 C-0.17912198 51.21877251 -0.15949182 46.59273157 -0.1373291 41.96661377 C-0.11682481 37.24078078 -0.10772556 32.5149272 -0.09765625 27.7890625 C-0.07624386 18.52598616 -0.04213366 9.26300364 0 0 Z " fill="#429ECB" transform="translate(306,3)"/>
<path d="M0 0 C4.86182377 2.43091188 7.80741607 5.71281586 11 10 C11.90756776 12.72270329 12.13075479 14.32721718 12.14717102 17.12782288 C12.15432632 17.96732483 12.16148163 18.80682678 12.16885376 19.67176819 C12.17154266 20.5896965 12.17423157 21.50762482 12.17700195 22.45336914 C12.18685875 23.90759781 12.18685875 23.90759781 12.19691467 25.39120483 C12.21665447 28.60585609 12.22831398 31.82046053 12.23828125 35.03515625 C12.24235678 36.13421232 12.2464323 37.23326839 12.25063133 38.3656292 C12.27149844 44.18670336 12.28579544 50.00775393 12.29516602 55.82885742 C12.30621075 61.82868254 12.34058679 67.82813478 12.38033772 73.82782841 C12.40654627 78.45111254 12.41486181 83.07430857 12.41844749 87.69766045 C12.42330519 89.90833482 12.43489573 92.11900547 12.45348549 94.32960701 C12.47795869 97.43365662 12.47689634 100.53675163 12.4699707 103.64086914 C12.48278076 104.54462784 12.49559082 105.44838654 12.50878906 106.37953186 C12.45686347 112.80490038 11.15441379 118.34939807 8 124 C3.3166518 127.91871992 -0.74559941 129.36412211 -6.87109375 129.28515625 C-11.30373669 128.6914261 -14.56645085 126.33468369 -17.8125 123.3125 C-21.19135931 116.73261609 -21.29798249 109.26211935 -21.29052734 102.01733398 C-21.29724457 101.0632666 -21.30396179 100.10919922 -21.31088257 99.1262207 C-21.32974794 95.99945754 -21.33378025 92.87291013 -21.3359375 89.74609375 C-21.34237089 87.55851658 -21.34909965 85.37094026 -21.35610962 83.18336487 C-21.36805188 78.60993453 -21.37179333 74.03657958 -21.37060547 69.46313477 C-21.37040188 63.61346803 -21.39775915 57.76428493 -21.43214989 51.91473293 C-21.45441762 47.40132946 -21.45844312 42.8880427 -21.45738602 38.37458992 C-21.45974003 36.21809273 -21.46855222 34.06159224 -21.48405075 31.90514946 C-21.50371784 28.88751356 -21.49787063 25.87092542 -21.48583984 22.85327148 C-21.49707886 21.97044998 -21.50831787 21.08762848 -21.51989746 20.17805481 C-21.45279797 13.53133892 -19.90473281 7.98559261 -15.17578125 3.125 C-10.14487245 0.08747016 -5.86231318 -1.16592474 0 0 Z " fill="#F6F8F9" transform="translate(358,328)"/>
<path d="M0 0 C1.11592624 -0.01169993 1.11592624 -0.01169993 2.25439644 -0.02363622 C4.74285794 -0.04355209 7.22978936 -0.0277946 9.71826172 -0.01205444 C11.50397636 -0.01883079 13.28968401 -0.02773402 15.07537842 -0.03860474 C19.92254513 -0.06140267 24.76917986 -0.0525597 29.6163559 -0.03670931 C34.6882623 -0.0240529 39.76012307 -0.0357897 44.83203125 -0.04364014 C53.34952983 -0.05273745 61.86681167 -0.04074662 70.38427734 -0.01693726 C80.23252037 0.01027414 90.08024585 0.00146004 99.92847633 -0.02606928 C108.38298282 -0.04875699 116.83733348 -0.05196208 125.29186058 -0.03887594 C130.34181578 -0.03107958 135.3915277 -0.03004495 140.44146729 -0.04655838 C145.18916304 -0.06099893 149.93619137 -0.05098905 154.683815 -0.0220871 C156.42649477 -0.01547406 158.16923067 -0.01737772 159.91188812 -0.02840042 C162.29065046 -0.04205976 164.66727263 -0.0249387 167.04589844 0 C167.73607622 -0.01115361 168.42625401 -0.02230722 169.13734627 -0.03379881 C172.92326266 0.04322949 174.46224164 0.58621851 177.45510864 2.9871006 C179.52294922 5.63491821 179.52294922 5.63491821 180.08544922 8.63491821 C179.37351624 12.43189408 178.2957599 13.94902993 175.52294922 16.63491821 C172.84558567 17.1349651 170.79677858 17.30438014 168.12145996 17.25637817 C166.99963168 17.26596141 166.99963168 17.26596141 165.85514021 17.27573824 C163.34738217 17.29100731 160.84119927 17.27051594 158.33349609 17.25015259 C156.53645809 17.25365323 154.73942318 17.25931117 152.94239807 17.26696777 C148.06008543 17.2812336 143.17833476 17.26413667 138.29607582 17.2406826 C133.19034645 17.22059922 128.08464099 17.22645185 122.97888184 17.22879028 C114.40412102 17.22873668 105.82958036 17.20896348 97.25488281 17.1769104 C87.3368726 17.14001644 77.41915086 17.13123457 67.50108099 17.13820791 C57.96601809 17.14450997 48.43105427 17.13376413 38.89601135 17.11424255 C34.83548065 17.10606105 30.77500054 17.10336039 26.71446228 17.10493469 C21.93408263 17.1058127 17.15397775 17.09162011 12.37367058 17.06570816 C10.61767343 17.05853703 8.86164708 17.05646728 7.1056385 17.0598259 C4.71160561 17.06353186 2.31837852 17.04882468 -0.07556152 17.02932739 C-1.12205706 17.03731928 -1.12205706 17.03731928 -2.18969393 17.04547262 C-6.22089398 16.98868963 -8.59263319 16.52946178 -11.47705078 13.63491821 C-12.26220703 11.76773071 -12.26220703 11.76773071 -12.53955078 9.75991821 C-12.65427734 9.10249634 -12.76900391 8.44507446 -12.88720703 7.76773071 C-11.60747243 1.11311078 -5.83257376 -0.09425723 0 0 Z " fill="#919191" transform="translate(82.47705078125,119.36508178710938)"/>
<path d="M0 0 C1.00098698 1.9712419 1.97329198 3.93893576 2.859375 5.96484375 C5.1454125 11.02821629 7.35268661 13.90179107 12 17 C17.66258881 19.05462979 22.70815039 19.25643622 28.69358826 19.16648865 C29.65199853 19.16043627 30.61040881 19.1543839 31.59786183 19.14814812 C34.80033759 19.12573633 38.00249002 19.08897139 41.20483398 19.05249023 C43.50499174 19.03391176 45.8051582 19.01638563 48.10533142 18.99983215 C53.05604143 18.96302902 58.00666781 18.92088257 62.957304 18.87524223 C70.79633561 18.80514694 78.63538434 18.76009169 86.47462463 18.72096252 C87.81246444 18.7141827 89.15030418 18.70739088 90.48814386 18.70058721 C92.51551096 18.69030836 94.54287817 18.68005568 96.57024575 18.66987319 C104.20659511 18.63146783 111.84292918 18.59069685 119.47924805 18.54663086 C120.17687766 18.54261444 120.87450726 18.53859802 121.59327716 18.5344599 C132.87932728 18.46843184 144.16488073 18.3692671 155.45058011 18.25959026 C167.06282061 18.14770504 178.67476612 18.07920745 190.28749901 18.04636723 C196.79769492 18.02636945 203.30638164 17.98644915 209.81603813 17.8980999 C215.94700623 17.81516808 222.07608744 17.78444368 228.2075901 17.79240227 C230.44730529 17.78622344 232.68706609 17.76138486 234.92632294 17.71565628 C250.02295984 17.42138413 259.68457542 19.60259664 271 30 C271 30.33 271 30.66 271 31 C239.04989706 31.068468 207.09981503 31.12154462 175.14965585 31.15319599 C171.37589349 31.15694802 167.60213128 31.16083099 163.82836914 31.16479492 C163.07709501 31.16558185 162.32582088 31.16636878 161.55178087 31.16717956 C149.39430205 31.18022619 137.23686588 31.20387593 125.07941235 31.23145839 C112.60064461 31.25953328 100.12189918 31.27618066 87.64310116 31.28226548 C79.94574725 31.28637761 72.2485139 31.29935584 64.5511971 31.3237494 C58.64449767 31.34151246 52.73785979 31.34336035 46.83113289 31.33932304 C44.41123208 31.34014784 41.99132668 31.34610812 39.57145309 31.35761642 C36.26386354 31.37257388 32.95678697 31.36894135 29.64918518 31.36076355 C28.69488178 31.36950207 27.74057839 31.3782406 26.7573567 31.38724393 C19.24505916 31.33714871 13.05175111 29.95772713 6.6875 25.875 C0.0946305 18.82216286 -0.42084669 12.20357596 -0.140625 2.74609375 C-0.07101563 1.38677734 -0.07101563 1.38677734 0 0 Z " fill="#CECFCF" transform="translate(6,461)"/>
<path d="M0 0 C0.97649051 -0.00128164 0.97649051 -0.00128164 1.97270811 -0.00258917 C4.16382967 -0.00424215 6.35487543 0.00127443 8.54598999 0.00672913 C10.11276752 0.00701106 11.67954518 0.00685314 13.24632263 0.00628662 C17.50847646 0.0059989 21.77060234 0.01189155 26.03274965 0.01886058 C30.48372539 0.02509832 34.93470172 0.02569825 39.38568115 0.02688599 C47.81816257 0.02999806 56.25063106 0.03820978 64.68310678 0.04823548 C74.28151775 0.05940046 83.87992932 0.06490804 93.47834516 0.06993091 C113.22664935 0.08039249 132.9749419 0.09798954 152.72323608 0.12025452 C152.3481189 0.67712952 151.97300171 1.23400452 151.58651733 1.80775452 C151.07475952 2.57087952 150.56300171 3.33400452 150.03573608 4.12025452 C149.47477989 4.93492597 148.9138237 5.74959742 148.33586884 6.58895588 C146.69306898 9.02011916 146.69306898 9.02011916 145.70954132 11.46444225 C144.61286796 13.8878508 143.74283329 15.3737358 141.72323608 17.12025452 C137.03481037 18.31923704 132.36265502 18.18389881 127.55722046 18.10780334 C126.09661639 18.11373497 124.63602287 18.12311556 123.17546082 18.13568115 C119.21416045 18.1593202 115.25463183 18.13287339 111.29348946 18.09606385 C107.14649932 18.0646193 102.99958691 18.07462877 98.85250854 18.07891846 C91.88838611 18.07974754 84.92495767 18.04892454 77.96102905 17.99842834 C69.91224754 17.94036748 61.8644146 17.92807508 53.81545591 17.94128782 C46.06952439 17.95329244 38.32392127 17.93687818 30.57804871 17.90614891 C27.28306366 17.8933372 23.98825914 17.88974284 20.69325256 17.8934269 C16.81215749 17.89619196 12.93198684 17.8738309 9.05112267 17.83213997 C7.62776095 17.82074622 6.2043026 17.81779529 4.78090858 17.82394791 C2.83637711 17.83089784 0.89181284 17.80395773 -1.05252075 17.77536011 C-2.14019493 17.76957852 -3.22786911 17.76379694 -4.34850311 17.75784016 C-8.26132186 16.90588153 -9.78847971 15.18873095 -12.27676392 12.12025452 C-13.02139632 8.14888171 -12.64943269 6.67925768 -10.40176392 3.30775452 C-6.9555823 -0.23978538 -4.84285389 -0.00381327 0 0 Z " fill="#939393" transform="translate(82.27676391601563,265.87974548339844)"/>
<path d="M0 0 C1.71005219 -0.002062 1.71005219 -0.002062 3.45465088 -0.00416565 C5.33199669 0.00122726 5.33199669 0.00122726 7.24726868 0.00672913 C8.56443878 0.0065831 9.88160889 0.00643707 11.23869324 0.00628662 C14.85205032 0.00599936 18.46537429 0.01188457 22.07872367 0.01886058 C25.8543708 0.02510599 29.63001867 0.02569886 33.40567017 0.02688599 C40.55606139 0.02999579 47.70643734 0.03820447 54.85682184 0.04823548 C62.99700044 0.05940748 71.13717977 0.06490981 79.27736413 0.06993091 C96.02295674 0.08038736 112.76853301 0.09818114 129.51411438 0.12025452 C131.82411438 5.73025452 134.13411438 11.34025452 136.51411438 17.12025452 C117.82526052 17.23598814 99.13650782 17.32522156 80.44736958 17.37931538 C71.76970536 17.40509946 63.09226785 17.44025372 54.41474915 17.49745178 C46.8515987 17.54728071 39.28861243 17.57954405 31.7253024 17.59069699 C27.72032071 17.5972167 23.71580873 17.61254345 19.71097755 17.6489048 C15.94096373 17.68285666 12.17161283 17.69330942 8.40146065 17.68579292 C7.01833747 17.68716787 5.63519201 17.69710613 4.25220108 17.71628189 C-7.50763673 17.8713315 -7.50763673 17.8713315 -10.81237793 14.77227783 C-12.88184612 11.49277221 -13.20016806 9.92976087 -12.48588562 6.12025452 C-9.00433751 0.71785228 -6.19168648 -0.00574901 0 0 Z " fill="#929292" transform="translate(82.48588562011719,412.87974548339844)"/>
<path d="M0 0 C1.87378075 -0.0010952 1.87378075 -0.0010952 3.78541565 -0.00221252 C7.20296118 0.00067068 10.61898954 0.02571253 14.03626657 0.06065726 C17.61032897 0.09195132 21.18441243 0.09485387 24.7585907 0.1007843 C31.52306828 0.11631393 38.28714098 0.15732997 45.05144042 0.20753175 C52.75389182 0.26345304 60.45636274 0.29091864 68.15896666 0.31600893 C84.00034287 0.36824703 99.8412898 0.4571808 115.68237305 0.56762695 C115.35237305 6.17762695 115.02237305 11.78762695 114.68237305 17.56762695 C98.34039676 17.66023479 81.99852871 17.73161133 65.65635395 17.77487564 C58.06833779 17.79549824 50.48048769 17.82361286 42.89257812 17.86938477 C36.27870691 17.90926203 29.66495597 17.93506197 23.05096787 17.94398093 C19.54906366 17.94919426 16.04750351 17.96144055 12.54570961 17.99054718 C8.63587637 18.0227816 4.72637931 18.02358578 0.81640625 18.02172852 C-0.34381042 18.03610962 -1.5040271 18.05049072 -2.69940186 18.06530762 C-10.54992035 18.02485306 -10.54992035 18.02485306 -14.51350403 15.66424561 C-16.66497205 13.16396809 -17.25508993 12.03665461 -17.69262695 8.75512695 C-17.31762695 5.56762695 -17.31762695 5.56762695 -15.56404114 2.90388489 C-10.59986699 -0.66854628 -5.96997584 -0.09103138 0 0 Z " fill="#929292" transform="translate(87.317626953125,339.432373046875)"/>
<path d="M0 0 C0.33 0 0.66 0 1 0 C1.26532697 6.61756675 0.31196915 12.54894859 -1.125 19 C-1.35018311 20.01457275 -1.57536621 21.02914551 -1.80737305 22.07446289 C-7.84166912 48.22032101 -21.03730517 71.21973079 -39 91 C-39.76570312 91.84949219 -40.53140625 92.69898438 -41.3203125 93.57421875 C-61.93159757 115.26846964 -90.62541624 130.49000937 -120 136 C-120.91644287 136.17587646 -121.83288574 136.35175293 -122.77709961 136.53295898 C-131.76186473 138.09779572 -140.60052066 138.35953848 -149.6875 138.3125 C-150.43767395 138.31034485 -151.1878479 138.3081897 -151.96075439 138.30596924 C-163.21656077 138.25410745 -174.0597948 137.82070278 -185 135 C-186.15218018 134.71793701 -186.15218018 134.71793701 -187.32763672 134.43017578 C-205.25304261 129.93899874 -222.56176769 122.67202892 -237 111 C-237.97195313 110.30003906 -238.94390625 109.60007812 -239.9453125 108.87890625 C-262.83395605 92.2045013 -282.92743304 68.15972921 -292 41 C-292 40.01 -292 39.02 -292 38 C-291.34 38 -290.68 38 -290 38 C-289.48953125 39.17433594 -288.9790625 40.34867187 -288.453125 41.55859375 C-281.7109999 56.64788638 -273.3167546 69.89158843 -261.9375 81.94140625 C-260.22975114 83.75588942 -258.6779548 85.6168947 -257.125 87.5625 C-253.00870383 92.37609224 -247.99893048 96.14981364 -243 100 C-241.9584375 100.80695313 -240.916875 101.61390625 -239.84375 102.4453125 C-207.67324902 126.73196353 -167.3701957 135.49005124 -127.72607422 130.40673828 C-95.73918941 125.63420111 -68.14503462 111.32294323 -45 89 C-44.09765625 88.17242187 -43.1953125 87.34484375 -42.265625 86.4921875 C-17.7951452 63.36546237 -5.83584608 32.55787813 0 0 Z " fill="#3B9BCA" transform="translate(504,374)"/>
<path d="M0 0 C4.31569607 1.8982573 7.02234614 4.15079039 9.08203125 8.42578125 C10.56503027 13.02401091 10.19256271 16.96482232 8.578125 21.5390625 C5.75611753 25.77207371 2.62583508 28.71065914 -2.296875 30.3515625 C-7.98950338 30.91540379 -12.44631638 30.65876156 -17.296875 27.3515625 C-21.26547133 23.41523118 -23.14611112 20.1908818 -23.609375 14.5390625 C-23.54491834 10.14795256 -22.14625386 7.74001304 -19.296875 4.3515625 C-13.31157777 -0.92119934 -7.83051692 -2.21065614 0 0 Z " fill="#F8F9F9" transform="translate(360.296875,283.6484375)"/>
<path d="M0 0 C3 1 3 1 4.625 3.3125 C8.04491006 7.18239822 11.01015461 8.71225927 16 10 C18.61669161 10.1496734 21.14043699 10.21176623 23.75390625 10.17578125 C24.91360176 10.16775986 24.91360176 10.16775986 26.09672546 10.15957642 C38.2971992 10.01801658 50.49293367 9.32433127 62.67651367 8.70361328 C65.92588506 8.53997075 69.17565976 8.39006867 72.42578125 8.2421875 C73.41532303 8.18811737 74.40486481 8.13404724 75.4243927 8.07833862 C81.46919985 7.81498298 85.56106981 7.89065497 90.3125 12 C92 14 92 14 92 16 C84.76602587 16.26482439 77.53192335 16.52581868 70.29764843 16.78230286 C66.93623703 16.90159082 63.57489907 17.02243105 60.21362305 17.14550781 C52.60286439 17.42375976 44.9920366 17.68117497 37.3793335 17.90039062 C35.23824164 17.96350154 33.09729271 18.0318626 30.956604 18.10742188 C28.34216659 18.19672452 25.72866739 18.25947104 23.11328125 18.3125 C22.02855782 18.35709351 22.02855782 18.35709351 20.92192078 18.40258789 C14.6486796 18.47371148 9.73421597 16.22576594 4.94140625 12.32421875 C1.47693865 8.21200367 0.22040416 5.39990182 0 0 Z " fill="#3F90B8" transform="translate(307,81)"/>
<path d="M0 0 C2 3 2 3 3.6875 6.375 C6.47587752 11.32279771 10.66988886 14.22329629 16 16 C18.69842594 16.10137733 21.36425607 16.14058552 24.0625 16.125 C25.30858032 16.12209961 25.30858032 16.12209961 26.57983398 16.11914062 C33.58180262 16.07304556 40.56746609 15.79803007 47.5625 15.5 C52.04136018 15.32432574 56.52060737 15.16142526 61 15 C62.19431641 14.95246582 63.38863281 14.90493164 64.61914062 14.85595703 C68.18352744 14.72565741 71.74659216 14.63874928 75.3125 14.5625 C76.40957275 14.51609375 77.50664551 14.4696875 78.63696289 14.421875 C86.08596026 14.31866918 86.08596026 14.31866918 88.83349609 16.36669922 C90.23046875 18.02734375 90.23046875 18.02734375 92 21 C89.81621377 23.18378623 84.68267768 22.26171337 81.640625 22.31640625 C80.67635086 22.33741394 79.71207672 22.35842163 78.71858215 22.38006592 C75.56247531 22.44681639 72.40629848 22.50556896 69.25 22.5625 C68.18377411 22.58234955 67.11754822 22.6021991 66.01901245 22.62265015 C60.65778738 22.7215941 55.2965036 22.81420491 49.93505859 22.90039062 C45.56453703 22.97121916 41.19475321 23.05895409 36.82479858 23.15821838 C33.57094318 23.2272154 30.31677882 23.26878775 27.0625 23.3125 C25.36432129 23.35709351 25.36432129 23.35709351 23.63183594 23.40258789 C16.07240104 23.45808606 10.47139387 22.38576176 4.94140625 16.9921875 C1.27844778 11.36804164 0.02802473 6.71192338 0 0 Z " fill="#D7D9DA" transform="translate(306,82)"/>
<path d="M0 0 C0.33 0 0.66 0 1 0 C1.07476562 0.59167969 1.14953125 1.18335938 1.2265625 1.79296875 C1.94637959 6.11892833 2.52591293 9.12752313 6 12 C11.5527059 15.70180393 16.40080348 15.85966545 23 15 C26.16061486 13.57962077 28.1001556 11.89360916 30 9 C31.06983648 6.02285324 31.65803431 3.14050127 32 0 C32.33 0 32.66 0 33 0 C33.28944223 5.59588314 33.20887163 9.18669255 30 14 C25.99314815 18.05064258 22.42901274 20.13100492 16.6875 20.25 C11.73816188 20.16978382 8.17290551 19.15523961 4.55859375 15.5703125 C-0.02490604 10.32083411 -0.10855355 6.62176677 0 0 Z " fill="#D7E1E5" transform="translate(337,294)"/>
<path d="M0 0 C1.12515014 3.37545042 0.98806178 3.85568386 -0.4375 6.9375 C-2.54258857 10.86555186 -4.76564366 12.67533243 -8.85546875 14.375 C-13.85573643 15.83227291 -18.12948204 15.7292448 -22.8125 13.25 C-25.59202014 11.28798578 -27.34016448 9.92912151 -29 7 C-29 6.34 -29 5.68 -29 5 C-26.77566716 6.07097507 -24.88600091 7.08981746 -22.9375 8.625 C-18.36309835 10.76620928 -13.96055737 10.64829604 -9 10 C-3.97952501 7.66906518 -2.0762074 5.07517365 0 0 Z " fill="#DBE1E4" transform="translate(368,442)"/>
<path d="M0 0 C0.515625 0.7425 1.03125 1.485 1.5625 2.25 C5.58471782 6.78788677 9.02939098 8.74976393 14.9375 9.5 C19.48883926 9.24321238 23.31341051 7.65264945 27 5 C29.01119746 2.43600226 29.01119746 2.43600226 30 0 C30.33 0.99 30.66 1.98 31 3 C28.48074996 7.73619008 25.86134773 10.70190835 21 13 C16.09665772 13.64176097 11.67715648 13.67799943 7.0625 11.8125 C3.05630229 8.29190201 0.61735941 5.40189485 0 0 Z " fill="#419FCD" transform="translate(338,447)"/>
<path d="M0 0 C0.33 0.66 0.66 1.32 1 2 C-5.22506128 10.00059422 -5.22506128 10.00059422 -10 11 C-15.77489173 11.57963597 -20.00710034 11.25119048 -25 8 C-27.375 5.8125 -27.375 5.8125 -29 4 C-28.67 3.01 -28.34 2.02 -28 1 C-26.53515625 2.26953125 -25.0703125 3.5390625 -23.60546875 4.80859375 C-19.60387004 7.77814997 -14.74561816 7.45505928 -10 7 C-5.75629632 5.39860239 -3.01718166 3.36531801 0 0 Z " fill="#4DA9D6" transform="translate(368,306)"/>
<path d="M0 0 C0.66 0 1.32 0 2 0 C3.32 3.63 4.64 7.26 6 11 C5.01 11.33 4.02 11.66 3 12 C2.49663233 10.37604003 1.99741024 8.75079459 1.5 7.125 C1.2215625 6.22007812 0.943125 5.31515625 0.65625 4.3828125 C0 2 0 2 0 0 Z " fill="#4EA7D2" transform="translate(208,401)"/>
</svg>
