<?xml version="1.0" encoding="UTF-8"?>
<svg version="1.1" xmlns="http://www.w3.org/2000/svg" width="512" height="512">
<path d="M0 0 C0.59474121 0.47904785 1.18948242 0.9580957 1.80224609 1.45166016 C15.11194562 12.28940116 27.59618064 24.32264616 38 38 C38.61705811 38.79446533 38.61705811 38.79446533 39.24658203 39.60498047 C68.46370733 77.31809559 87.91435136 125.46425162 88.203125 173.6015625 C88.21018463 174.39222107 88.21724426 175.18287964 88.22451782 175.99749756 C88.6536511 238.2454525 69.94785757 295.27362528 28 342 C27.51611816 342.5455957 27.03223633 343.09119141 26.53369141 343.65332031 C21.02149732 349.86450436 15.38900329 355.67774233 9 361 C7.69095703 362.175625 7.69095703 362.175625 6.35546875 363.375 C-35.17731635 400.36631761 -91.1488217 419.49852731 -146.3125 419.375 C-147.69038193 419.37418427 -147.69038193 419.37418427 -149.09609985 419.37335205 C-185.43134805 419.27488361 -221.85870812 411.45377486 -254.01074219 394.07275391 C-256.11416171 392.93843562 -258.23234205 391.83494999 -260.3515625 390.73046875 C-289.6669609 375.20755814 -316.63704948 351.95433965 -336 325 C-336.76183594 323.95972656 -337.52367187 322.91945313 -338.30859375 321.84765625 C-360.22737465 291.115778 -374.0998053 256.23437027 -380 219 C-380.12842285 218.24525391 -380.2568457 217.49050781 -380.38916016 216.71289062 C-390.24365091 157.33786105 -372.18283627 94.27264462 -337.75 45.875 C-336.51537684 44.23828663 -335.26558227 42.61289383 -334 41 C-333.30777344 40.11699219 -332.61554688 39.23398438 -331.90234375 38.32421875 C-326.23929673 31.26288851 -320.20458067 24.58369812 -314 18 C-313.31035156 17.2678125 -312.62070312 16.535625 -311.91015625 15.78125 C-306.66004691 10.37009436 -300.90670926 5.67386902 -295 1 C-294.03449219 0.21753906 -293.06898438 -0.56492188 -292.07421875 -1.37109375 C-278.15325807 -12.42649454 -263.07568646 -21.45788278 -247 -29 C-246.09765625 -29.44601563 -245.1953125 -29.89203125 -244.265625 -30.3515625 C-165.88760733 -68.08011138 -67.03478905 -54.01453629 0 0 Z " fill="#2DB674" transform="translate(404,72)"/>
<path d="M0 0 C6.39325745 2.24947947 9.04078316 6.08156632 12 12 C12 29.49 12 46.98 12 65 C77.67 65 143.34 65 211 65 C211 46.85 211 28.7 211 10 C216.09090909 2.36363636 216.09090909 2.36363636 221 0 C226.92572464 -0.85894054 231.98865463 -0.49628747 237 3 C241.98773701 7.96062975 243.12271908 11.80732976 243.16113281 18.74707031 C243.16609772 19.42876785 243.17106262 20.11046539 243.17617798 20.81282043 C243.19078094 23.06793225 243.19759939 25.32297366 243.203125 27.578125 C243.20887915 29.14890545 243.21463685 30.71968589 243.22039795 32.29046631 C243.23090343 35.58573737 243.23674867 38.88098408 243.24023438 42.17626953 C243.24571015 46.38724364 243.26972024 50.59789295 243.29820633 54.80876541 C243.31688519 58.05510377 243.32204115 61.30136483 243.32357025 64.54775238 C243.32658681 66.09941122 243.33458154 67.65106902 243.34775543 69.20267487 C243.36492218 71.38048039 243.36291008 73.55750476 243.35644531 75.73535156 C243.36009094 76.97206604 243.36373657 78.20878052 243.36749268 79.48297119 C242.67626763 86.09822796 240.10884454 90.63879124 235 95 C232.14637322 96.68648792 230.07919209 97.25084451 226.77639961 97.25726891 C225.5159812 97.26694224 225.5159812 97.26694224 224.2300998 97.276811 C222.85297454 97.2721652 222.85297454 97.2721652 221.44802856 97.26742554 C219.97917326 97.27422221 219.97917326 97.27422221 218.48064411 97.28115618 C215.19033624 97.29384434 211.90019295 97.29217696 208.60986328 97.29052734 C206.25450425 97.29650981 203.89914719 97.3033147 201.54379272 97.31088257 C195.13886186 97.32857791 188.73398441 97.33323943 182.32903147 97.33451414 C178.32949764 97.3355018 174.32997051 97.34007228 170.33044052 97.34550858 C157.1034534 97.36312122 143.87649872 97.37234738 130.64949979 97.37084763 C129.57993831 97.37072776 129.57993831 97.37072776 128.48876953 97.37060547 C127.41790202 97.37048283 127.41790202 97.37048283 126.32540081 97.37035771 C114.75457021 97.36954475 103.18386977 97.38868483 91.61307682 97.4168822 C79.73196154 97.44560734 67.85090976 97.45942271 55.96975887 97.45769465 C49.2995041 97.45703063 42.62936648 97.46291661 35.95914078 97.48405075 C29.68660734 97.50338168 23.41436247 97.50359267 17.141819 97.48901749 C14.83837463 97.48692194 12.53491245 97.49167442 10.23149872 97.5037384 C7.08930384 97.51913081 3.94811138 97.50992185 0.80593872 97.49447632 C-0.56449437 97.50990701 -0.56449437 97.50990701 -1.96261299 97.52564943 C-7.47471549 97.4656868 -10.63147848 96.68088335 -15 93 C-19.29982301 88.11911983 -20.15235458 85.25339385 -20.17700195 78.89160156 C-20.18357315 78.1596759 -20.19014435 77.42775024 -20.19691467 76.67364502 C-20.21666064 74.24597067 -20.22831414 71.81835827 -20.23828125 69.390625 C-20.24235678 68.56147331 -20.2464323 67.73232162 -20.25063133 66.87804413 C-20.2714993 62.48803455 -20.28579689 58.09805628 -20.29516602 53.70800781 C-20.30622187 49.17734066 -20.34060984 44.64716581 -20.38033772 40.11667252 C-20.40650953 36.63017883 -20.41485842 33.14380221 -20.41844749 29.65721893 C-20.42331334 27.98749218 -20.43492736 26.31777066 -20.45348549 24.64813995 C-20.4778861 22.30702493 -20.47691065 19.96718035 -20.4699707 17.62597656 C-20.48278076 16.94003418 -20.49559082 16.2540918 -20.50878906 15.54736328 C-20.45542558 10.59179547 -19.0628618 7.83353062 -16 4 C-11.0110418 -0.51381932 -6.43453578 -0.8593354 0 0 Z " fill="#FDFEFE" transform="translate(146,265)"/>
<path d="M0 0 C4.6423807 1.46149022 7.17047687 3.77314727 9.93540001 7.77871895 C12.07557518 12.24418071 11.6973224 17.04145815 11.65942383 21.90209961 C11.66990753 23.08330383 11.68039124 24.26450806 11.69119263 25.48150635 C11.71496879 28.70234597 11.71688886 31.92228906 11.70889878 35.14317775 C11.70576387 38.51584388 11.73083668 41.88830069 11.75285339 45.26087952 C11.79023828 51.63910024 11.80243806 58.01710779 11.8054778 64.39542729 C11.8101747 71.66036628 11.84311815 78.92509253 11.87837565 86.18993747 C11.950236 101.12660043 11.98681501 116.0631613 12 131 C12.51385254 130.47043701 13.02770508 129.94087402 13.55712891 129.39526367 C15.90506239 126.98470806 18.26483885 124.58608238 20.625 122.1875 C21.43324219 121.35412109 22.24148438 120.52074219 23.07421875 119.66210938 C32.12345669 110.50251487 32.12345669 110.50251487 39.375 109.5625 C45.40776293 110.29059208 50.09053528 112.43871517 54 117.1875 C56.58162599 121.25181659 56.94992919 125.32159873 56 130 C54.03623034 134.49151033 51.77496148 137.59996302 48.31665039 141.05566406 C47.85446609 141.52149902 47.3922818 141.98733398 46.91609192 142.46728516 C45.40055605 143.99086601 43.87452133 145.50340472 42.34765625 147.015625 C41.28484325 148.0779188 40.22254961 149.14073246 39.16075134 150.20404053 C36.94038636 152.42431606 34.71496987 154.63935749 32.4855957 156.85058594 C29.63119417 159.68225988 26.78804264 162.52491831 23.94835758 165.37134171 C21.75856298 167.56447985 19.56380664 169.75259593 17.36742973 171.93914032 C16.31714545 172.9855821 15.26819823 174.03336766 14.22062874 175.08252716 C12.75620432 176.54732314 11.28544079 178.00544129 9.81274414 179.46191406 C8.97796036 180.29209045 8.14317657 181.12226685 7.28309631 181.9776001 C3.38273735 185.43259476 0.43353585 186.33885381 -4.75 186.5 C-5.73484375 186.5515625 -6.7196875 186.603125 -7.734375 186.65625 C-16.47636515 184.89948643 -23.30464654 175.98766765 -29.3359375 169.9296875 C-30.30591229 168.96106316 -31.27618353 167.99273561 -32.24673462 167.02468872 C-34.26524395 165.00910716 -36.2801439 162.99000556 -38.29248047 160.96826172 C-40.8679617 158.38132573 -43.45240322 155.80355666 -46.03957176 153.22831535 C-48.0386285 151.23648864 -50.03289395 149.23991963 -52.02574539 147.24188614 C-53.43783727 145.82782002 -54.85394282 144.41776564 -56.27011108 143.00778198 C-57.12505157 142.14653717 -57.97999207 141.28529236 -58.86083984 140.39794922 C-59.61392426 139.64327362 -60.36700867 138.88859802 -61.14291382 138.11105347 C-65.27880155 133.40955915 -65.59481686 129.18365263 -65.52734375 123.05859375 C-64.66804618 118.07466787 -61.81367734 115.14930368 -58 112 C-55.34369407 110.67184704 -53.21670703 110.75760875 -50.25 110.6875 C-48.71085938 110.63142578 -48.71085938 110.63142578 -47.140625 110.57421875 C-39.86103216 111.56112872 -35.1268172 117.65259344 -30.25 122.6875 C-28.92410552 124.04775067 -27.59608304 125.40593135 -26.265625 126.76171875 C-25.68586914 127.35944092 -25.10611328 127.95716309 -24.50878906 128.57299805 C-23.03882012 130.10129259 -23.03882012 130.10129259 -21 131 C-21.00276538 130.39223661 -21.00553076 129.78447323 -21.00837994 129.15829277 C-21.07467477 114.36017871 -21.1242976 99.56207901 -21.15543652 84.76385307 C-21.17089589 77.60748837 -21.19196753 70.45122289 -21.22631836 63.29492188 C-21.25624932 57.05643144 -21.27558176 50.81801288 -21.28226548 44.57945263 C-21.28617154 41.27709774 -21.29691217 37.97499599 -21.31719017 34.67269516 C-21.33894534 30.98333257 -21.34196764 27.29439681 -21.34057617 23.60498047 C-21.351362 22.51381424 -21.36214783 21.42264801 -21.3732605 20.29841614 C-21.34656849 13.76434983 -20.60097647 9.43498524 -16.5625 4.1015625 C-11.47593711 -0.70523943 -6.78768093 -1.00634301 0 0 Z " fill="#FDFEFD" transform="translate(262,113)"/>
</svg>
