<?xml version="1.0" encoding="UTF-8"?>
<svg version="1.1" xmlns="http://www.w3.org/2000/svg" width="512" height="512">
<path d="M0 0 C1.6961554 -0.00763295 3.39230737 -0.01606238 5.0884552 -0.02522278 C9.66870517 -0.04704799 14.24888846 -0.05594911 18.82918453 -0.06104922 C21.69337431 -0.06470351 24.55754687 -0.07094874 27.42173004 -0.07805061 C37.42032127 -0.1024922 47.4188609 -0.11558795 57.41748047 -0.11914062 C66.7301149 -0.12278372 76.04242138 -0.15274787 85.35495543 -0.19454521 C93.36283933 -0.22922443 101.37061421 -0.24468856 109.3785727 -0.24538666 C114.15634597 -0.24617952 118.93378372 -0.25492464 123.71147919 -0.28338432 C128.19982386 -0.30952826 132.6875536 -0.31179099 137.17593956 -0.29572868 C138.82147499 -0.29391194 140.46704556 -0.30062532 142.11250496 -0.31654739 C144.36143729 -0.33698144 146.60821163 -0.32647579 148.8571167 -0.30833435 C150.11435925 -0.31034568 151.37160179 -0.31235701 152.6669426 -0.31442928 C157.19649712 0.50970118 158.83333433 2.091142 162.07910156 5.30639648 C163.54518982 8.238573 163.23198789 11.19663664 163.23681641 14.41137695 C163.24189713 15.14341843 163.24697784 15.8754599 163.25221252 16.62968445 C163.26292812 18.22349723 163.27154362 19.81732517 163.27833176 21.41115952 C163.29013171 23.94346658 163.30959299 26.47560394 163.33145142 29.00784302 C163.39299013 36.20951572 163.44687207 43.41117572 163.48046875 50.61303711 C163.50157084 55.01809417 163.5370085 59.42284915 163.58122635 63.82773209 C163.59527816 65.49801162 163.60408401 67.16834469 163.60728073 68.83868027 C163.639881 84.25831644 165.11007389 97.46279557 175.96191406 109.37280273 C186.46468888 119.21649654 198.71610768 121.62378621 212.68188477 121.56176758 C213.68968491 121.56538803 214.69748505 121.56900848 215.73582458 121.57273865 C217.90519117 121.57958745 220.07457482 121.58214664 222.2439518 121.58079147 C225.67814803 121.57982034 229.11203638 121.59283498 232.54618835 121.60977173 C242.30331116 121.65588741 252.06039873 121.68067344 261.81762695 121.68725586 C267.80095466 121.69226414 273.78395497 121.71646803 279.76717186 121.75258255 C282.04333724 121.76238536 284.3195476 121.7647099 286.59572792 121.75941086 C289.77194065 121.75235721 292.94717119 121.7695844 296.12329102 121.79223633 C297.06208099 121.78406387 298.00087097 121.77589142 298.96810913 121.76747131 C303.20130574 121.82125888 305.47565513 121.93026828 309.13883972 124.21353149 C312.08185251 127.3880146 312.20524163 129.13996723 312.21332264 133.37318134 C312.21778048 134.45248238 312.22223833 135.53178342 312.22683126 136.64379054 C312.22655471 138.43687806 312.22655471 138.43687806 312.22627258 140.26618958 C312.22994927 141.52871085 312.23362596 142.79123213 312.23741406 144.09201163 C312.24745071 147.60828598 312.25115356 151.12454327 312.25380337 154.64082992 C312.25770179 158.42908893 312.2672808 162.21733436 312.27601624 166.00558472 C312.29579919 175.16321715 312.30585156 184.32085073 312.31474403 193.4784992 C312.31912606 197.79185164 312.32449329 202.10520284 312.32973289 206.41855431 C312.346751 220.76076534 312.36124295 235.10297561 312.36848164 249.4451952 C312.37039153 253.16902988 312.37231186 256.89286456 312.37426758 260.61669922 C312.37475132 261.54223937 312.37523506 262.46777953 312.37573346 263.42136636 C312.38402527 278.39867026 312.40934521 293.37589407 312.44184826 308.35316304 C312.47495416 323.73388952 312.4929338 339.11457538 312.49612588 354.49533767 C312.49828828 363.12931032 312.5069967 371.76316637 312.53258705 380.39710426 C312.55434277 387.75434499 312.5623208 395.1114408 312.55262027 402.46871004 C312.5480889 406.21921626 312.5498931 409.96942383 312.56938171 413.71988869 C312.59038197 417.79672804 312.57998486 421.87291106 312.56684875 425.94978333 C312.58330262 427.70606394 312.58330262 427.70606394 312.60008889 429.49782497 C312.46295336 447.20510703 304.98178308 461.72278402 293.09082031 474.43139648 C288.74854747 478.6182961 284.02116197 481.72310336 278.76660156 484.61889648 C278.1870874 484.9445459 277.60757324 485.27019531 277.01049805 485.60571289 C267.62577924 490.51574262 257.61363432 491.75469018 247.1628418 491.68734741 C246.02582793 491.69202738 244.88881407 491.69670736 243.71734524 491.70152915 C239.9406735 491.71341146 236.16436918 491.70404821 232.38769531 491.69458008 C229.66650654 491.69699976 226.94533295 491.70388462 224.22415161 491.71051025 C217.62032529 491.72379977 211.01660169 491.7209913 204.41277146 491.71227233 C199.04225213 491.70547727 193.67176142 491.70458692 188.30123901 491.70784378 C187.53477914 491.70830348 186.76831927 491.70876318 185.97863334 491.70923681 C184.42123452 491.71019605 182.8638357 491.7111687 181.3064369 491.71215458 C166.72737912 491.72069447 152.14837809 491.7108964 137.56932962 491.69475348 C125.07939448 491.68135157 112.58954301 491.68368006 100.09960938 491.69750977 C85.5701526 491.7135904 71.04074545 491.71987062 56.51128101 491.71067297 C54.95984205 491.7097174 53.40840309 491.70877429 51.85696411 491.70784378 C51.09376985 491.70738095 50.3305756 491.70691813 49.54425424 491.70644128 C44.18467252 491.70385883 38.82512247 491.70820625 33.46554565 491.71528244 C26.92757629 491.7237253 20.38971488 491.72135907 13.85175776 491.70544021 C10.52054741 491.69759465 7.18966421 491.69603626 3.85843277 491.70438766 C0.23723183 491.7126269 -3.38346928 491.70225222 -7.00463867 491.68734741 C-8.04318276 491.69403958 -9.08172686 491.70073174 -10.15174198 491.7076267 C-27.65946969 491.56855623 -43.04569555 484.46621256 -55.33105469 472.16186523 C-68.16318177 458.01362256 -72.22967843 442.33332297 -72.18832397 423.78451538 C-72.19206324 422.1954135 -72.19666586 420.60631346 -72.20205462 419.01721632 C-72.21426618 414.66129103 -72.21402632 410.30544264 -72.21166587 405.94950414 C-72.21125723 401.24720789 -72.22230143 396.54493615 -72.23178101 391.84265137 C-72.24838244 382.63343261 -72.25389019 373.42423946 -72.25500576 364.21500699 C-72.25595675 356.72675537 -72.26006959 349.23851217 -72.26640701 341.75026321 C-72.28401796 320.50815744 -72.29324624 299.26607186 -72.29174607 278.02395873 C-72.29166615 276.87917979 -72.29158624 275.73440085 -72.29150391 274.55493164 C-72.29142214 273.4087507 -72.29134038 272.26256975 -72.29125614 271.08165605 C-72.29044354 252.51325718 -72.30957519 233.94493947 -72.33778064 215.37656407 C-72.3665297 196.29936807 -72.38031978 177.22221163 -72.37859309 158.14499342 C-72.37792983 147.43920121 -72.38339381 136.73349407 -72.40494919 126.02772141 C-72.42318769 116.91103344 -72.42748648 107.79446911 -72.41393034 98.67777078 C-72.40741386 94.02993265 -72.40723559 89.38233152 -72.42463684 84.73451614 C-72.44043145 80.47181744 -72.43743925 76.20954237 -72.42006858 71.94685359 C-72.41701265 70.41253154 -72.42057747 68.87817735 -72.43178873 67.34389322 C-72.56518622 47.77748798 -66.61763052 31.55184202 -52.92089844 17.30639648 C-37.1865913 3.13436098 -20.33634773 0.00582553 0 0 Z M-6.92089844 132.30639648 C-8.57695735 137.27457322 -8.10683192 142.44574829 -8.10620117 147.64819336 C-8.10838319 149.66728942 -8.12653967 151.68583485 -8.14550781 153.70483398 C-8.14744141 154.98358398 -8.149375 156.26233398 -8.15136719 157.57983398 C-8.15547607 158.74949707 -8.15958496 159.91916016 -8.16381836 161.12426758 C-7.9155738 164.37614662 -7.57567347 166.49604882 -5.92089844 169.30639648 C-2.53531151 170.9758765 0.22170523 171.55695251 3.97460938 171.56036377 C5.412901 171.56882324 5.412901 171.56882324 6.88024902 171.57745361 C7.92040161 171.57340515 8.9605542 171.56935669 10.03222656 171.56518555 C11.68913513 171.5704425 11.68913513 171.5704425 13.3795166 171.57580566 C17.02944225 171.58460539 20.67917395 171.5787799 24.32910156 171.57202148 C26.8658858 171.57336864 29.40266978 171.57530959 31.93945312 171.57781982 C37.25556129 171.58076871 42.57159999 171.57667191 47.88769531 171.56713867 C54.02765995 171.55625493 60.16749174 171.55978082 66.30745316 171.57079148 C72.22186638 171.58097185 78.13623845 171.57988054 84.05065918 171.57402802 C86.5640871 171.57269327 89.07751841 171.57433312 91.59094238 171.57898712 C95.10271198 171.58406257 98.61422601 171.57632746 102.12597656 171.56518555 C103.68620544 171.57125824 103.68620544 171.57125824 105.2779541 171.57745361 C106.23681519 171.57181396 107.19567627 171.56617432 108.18359375 171.56036377 C109.42795197 171.55923269 109.42795197 171.55923269 110.69744873 171.55807877 C113.47391212 171.26467469 115.57889339 170.53973464 118.07910156 169.30639648 C121.46270754 163.52891642 120.40741208 156.2760588 120.39160156 149.80639648 C120.40771484 148.48768555 120.42382812 147.16897461 120.44042969 145.81030273 C120.44139648 143.90571289 120.44139648 143.90571289 120.44238281 141.96264648 C120.44536377 140.80571289 120.44834473 139.6487793 120.45141602 138.45678711 C120.00620213 134.6895478 118.78134993 132.00864485 116.07910156 129.30639648 C114.52986455 129.20401433 112.97597781 129.17120225 111.42337036 129.16595459 C109.91326385 129.15738937 109.91326385 129.15738937 108.37265015 129.14865112 C106.70197983 129.14697433 106.70197983 129.14697433 104.99755859 129.14526367 C103.83180298 129.14029877 102.66604736 129.13533386 101.46496582 129.13021851 C98.2583084 129.11808514 95.05168749 129.11064521 91.84501123 129.10620785 C89.17102762 129.10229778 86.49704941 129.09614155 83.82306945 129.09029698 C78.23577887 129.0784754 72.64849826 129.07094493 67.06119645 129.06750178 C59.82784941 129.06302023 52.59469126 129.04547062 45.36140168 129.01650119 C39.77581426 128.99490501 34.19028007 128.9847986 28.60465133 128.98346066 C25.26609565 128.98241108 21.92775824 128.97503473 18.58923721 128.95864105 C14.86582221 128.94166216 11.14287117 128.94344099 7.41943359 128.94995117 C6.30970184 128.94073639 5.19997009 128.93152161 4.05661011 128.92202759 C3.04423279 128.92759674 2.03185547 128.93316589 0.98880005 128.93890381 C-0.33248555 128.93670397 -0.33248555 128.93670397 -1.68046379 128.93445969 C-4.41926971 129.3891316 -5.26600925 130.11260919 -6.92089844 132.30639648 Z M200.17285156 192.82202148 C199.56268188 193.43785095 198.95251221 194.05368042 198.32385254 194.68817139 C196.39924 196.63496771 194.48910028 198.59527154 192.57910156 200.55639648 C191.26753781 201.88804842 189.95504596 203.21878694 188.64160156 204.54858398 C185.44328087 207.79073283 182.25785306 211.04506351 179.07910156 214.30639648 C183.7673109 219.94208309 188.77895565 225.13743615 193.97753906 230.30249023 C195.2299791 231.55280785 195.2299791 231.55280785 196.50772095 232.8283844 C199.15416004 235.46926173 201.80406915 238.10662545 204.45410156 240.74389648 C206.257718 242.54249298 208.06110581 244.34131875 209.86425781 246.14038086 C214.26656417 250.53170896 218.67171871 254.92016377 223.07910156 259.30639648 C229.08228887 254.25544647 234.71258608 248.8920792 240.26904297 243.35668945 C241.83282551 241.80269584 243.40697144 240.25970353 244.98144531 238.71655273 C245.98861199 237.71591076 246.99514491 236.7146304 248.00097656 235.71264648 C248.90428711 234.81868164 249.80759766 233.9247168 250.73828125 233.00366211 C254.3087343 228.88952305 256.5075835 224.93241401 256.51660156 219.43139648 C256.54560547 218.25963867 256.54560547 218.25963867 256.57519531 217.06420898 C254.93996 207.97384577 248.71082716 202.2969211 242.39160156 196.05639648 C241.10092773 194.72995117 241.10092773 194.72995117 239.78417969 193.37670898 C233.78154871 187.38764839 227.78300282 182.36992059 219.01660156 181.80639648 C210.94054531 182.83192744 205.68682278 187.10874776 200.17285156 192.82202148 Z M-6.92089844 217.30639648 C-8.6115616 222.37838597 -8.14621863 227.76723457 -8.16113281 233.07543945 C-8.17083239 235.16715354 -8.20186606 237.25788185 -8.23339844 239.34936523 C-8.23992984 240.68659901 -8.24517977 242.02383978 -8.24902344 243.36108398 C-8.25836914 244.5726416 -8.26771484 245.78419922 -8.27734375 247.0324707 C-7.8893948 250.59575521 -7.06361178 252.46400833 -4.92089844 255.30639648 C-1.93934046 256.79717547 0.78520147 256.46668299 4.11157227 256.49926758 C4.83535065 256.50744507 5.55912903 256.51562256 6.30484009 256.52404785 C8.70484589 256.54890062 11.10479255 256.56541754 13.50488281 256.57983398 C14.73393373 256.5878195 14.73393373 256.5878195 15.98781395 256.59596634 C20.32479289 256.62269755 24.66174304 256.64207242 28.9987793 256.65649414 C33.47809484 256.67314134 37.95667453 256.71791905 42.43571186 256.76886559 C45.88013045 256.80252448 49.32437408 256.81407001 52.76894188 256.81972122 C54.41998099 256.82643762 56.07100842 256.84166995 57.72188759 256.86561203 C60.03468373 256.89723952 62.34549158 256.89730518 64.65844727 256.88989258 C66.63129448 256.90202286 66.63129448 256.90202286 68.64399719 256.91439819 C72.95938156 256.15058994 74.42530691 254.72985596 77.07910156 251.30639648 C77.82789481 247.82411995 77.82789481 247.82411995 77.70800781 243.99389648 C77.71041977 243.30255615 77.71283173 242.61121582 77.71531677 241.89892578 C77.71434113 240.4432194 77.70101446 238.98747463 77.67602539 237.53198242 C77.64169237 235.31226738 77.65537999 233.09653388 77.67480469 230.87670898 C77.66790571 229.45742132 77.65823283 228.03814387 77.64550781 226.61889648 C77.62919312 224.6949707 77.62919312 224.6949707 77.61254883 222.73217773 C76.97269493 218.6230565 76.06948498 217.17016195 73.07910156 214.30639648 C70.41119435 213.80989423 68.3759686 213.63995272 65.71191406 213.69116211 C64.97648376 213.6856131 64.24105347 213.68006409 63.4833374 213.67434692 C61.05625921 213.66255148 58.63104869 213.68682191 56.20410156 213.71264648 C54.51546311 213.71435771 52.82682199 213.71429179 51.13818359 213.71252441 C47.60065262 213.71417758 44.06375541 213.7328743 40.52636719 213.7644043 C35.99331064 213.80408228 31.4610842 213.80844964 26.92788696 213.80094147 C23.44141035 213.79787102 19.95512016 213.80999488 16.46868896 213.82707214 C14.79735483 213.83410044 13.12599957 213.83722688 11.45465088 213.83638 C9.11814233 213.83817903 6.78262591 213.85956831 4.44628906 213.88647461 C3.4113028 213.8820787 3.4113028 213.8820787 2.35540771 213.87759399 C-1.65920494 213.94887914 -4.08920939 214.37006181 -6.92089844 217.30639648 Z M158.22769749 234.88098955 C157.69930079 235.41248346 157.17090409 235.94397737 156.62649536 236.49157715 C156.06407855 237.04946285 155.50166174 237.60734855 154.92220199 238.18213987 C153.0258305 240.06578138 151.13675122 241.95657258 149.24755859 243.84741211 C147.89456655 245.194424 146.54116327 246.54102294 145.18737793 247.88723755 C141.50059806 251.55629138 137.82038831 255.23186883 134.1418252 258.90915871 C131.07200983 261.97707837 127.99947061 265.04226327 124.9270581 268.10758162 C117.6758354 275.34249533 110.43035066 282.58312214 103.18798828 289.8269043 C95.71839892 297.29769364 88.23774811 304.75727673 80.75176728 312.21163797 C74.32757792 318.60965798 67.91114175 325.01538392 61.50066268 331.42714071 C57.67103971 335.25727341 53.83838196 339.08424293 49.99792862 342.90351868 C46.38249241 346.4995634 42.77682296 350.1051242 39.17834473 353.71813583 C37.85799696 355.0405721 36.53424529 356.35962017 35.20681381 357.67494583 C33.39033116 359.47593559 31.58671328 361.2889303 29.78567505 363.10534668 C29.26173979 363.61899481 28.73780453 364.13264295 28.19799244 364.66185617 C23.22819613 369.72542857 19.77488713 375.59085496 19.25097656 382.77514648 C19.13447754 384.2394812 19.13447754 384.2394812 19.015625 385.73339844 C18.95407227 386.74748779 18.89251953 387.76157715 18.82910156 388.80639648 C18.71743652 390.38457153 18.71743652 390.38457153 18.60351562 391.99462891 C16.72052382 406.74272715 16.72052382 406.74272715 20.07910156 420.30639648 C25.15647585 421.46804059 30.02209033 421.31239114 35.17285156 420.88842773 C36.2983844 420.80065315 36.2983844 420.80065315 37.44665527 420.71110535 C39.02353441 420.5848685 40.60007822 420.45437714 42.17626953 420.31982422 C44.57122156 420.11955542 46.96717988 419.94588713 49.36425781 419.77319336 C50.90475692 419.64656424 52.44512763 419.51836113 53.98535156 419.38842773 C55.04659241 419.31625786 55.04659241 419.31625786 56.12927246 419.24263 C64.34506938 418.47891647 69.61138653 414.22873774 75.15989685 408.58636475 C75.72940805 408.01941682 76.29891925 407.4524689 76.88568836 406.86834073 C78.77823086 404.98071075 80.65990109 403.08261444 82.54174805 401.18432617 C83.90172447 399.82350293 85.26236303 398.46334113 86.62361145 397.10379028 C90.3075124 393.42074857 93.98210294 389.72854357 97.65507388 386.03460598 C101.49872343 382.17217787 105.35089421 378.31826747 109.2021637 374.46343994 C116.48948594 367.16680073 123.76912827 359.86254922 131.04603297 352.5555222 C139.33272706 344.23527335 147.62796117 335.92356125 155.9239186 327.61255026 C172.98515622 310.5199715 190.03565749 293.41671639 207.07910156 276.30639648 C205.48933309 272.95581006 203.75109034 270.72542771 201.12011719 268.08862305 C200.3058728 267.26807434 199.49162842 266.44752563 198.65270996 265.60211182 C197.77248169 264.72593201 196.89225342 263.8497522 195.98535156 262.94702148 C195.08288696 262.04264343 194.18042236 261.13826538 193.25061035 260.20648193 C191.34315052 258.29766157 189.43379744 256.39099099 187.52099609 254.48754883 C185.06603847 252.04401768 182.62021164 249.59157413 180.17694855 247.13635635 C177.84709563 244.79755736 175.50965625 242.46637156 173.17285156 240.13452148 C172.29262329 239.25024475 171.41239502 238.36596802 170.50549316 237.45489502 C169.28412659 236.24298492 169.28412659 236.24298492 168.03808594 235.0065918 C167.32019897 234.29029602 166.60231201 233.57400024 165.8626709 232.83599854 C162.38898796 229.85694275 161.05084821 232.09559348 158.22769749 234.88098955 Z " fill="#0086B0" transform="translate(135.9208984375,20.693603515625)"/>
<path d="M0 0 C2.08520508 1.39505005 2.08520508 1.39505005 4.20703125 3.41064453 C5.07730957 4.23356995 5.94758789 5.05649536 6.84423828 5.90435791 C7.89815418 6.93420059 8.94987791 7.96628909 10 9 C10.62138855 9.60848534 11.2427771 10.21697067 11.88299561 10.84389496 C17.35327923 16.21210428 22.77174482 21.63156677 28.1875 27.0546875 C29.93946999 28.80598296 31.69158833 30.55713002 33.44384766 32.30813599 C37.0965153 35.95933644 40.74738571 39.61232184 44.39697266 43.26660156 C49.07882677 47.95418209 53.76519618 52.63721887 58.45289612 57.31895256 C62.06284064 60.92529023 65.67040838 64.53399786 69.2772522 68.14343643 C71.00532606 69.87217769 72.73414393 71.60017555 74.4637146 73.32741928 C76.87146329 75.73263625 79.27599674 78.14102159 81.6796875 80.55029297 C82.39549484 81.26407608 83.11130219 81.97785919 83.84880066 82.71327209 C84.50181656 83.36910782 85.15483246 84.02494354 85.82763672 84.70065308 C86.67924881 85.55283071 86.67924881 85.55283071 87.54806519 86.42222404 C91.26271682 90.45882953 91.42001594 93.30533983 91.328125 98.55078125 C90.86999473 101.97039648 89.51692536 103.70515629 87 106 C84.21714785 107.39142607 81.92682262 107.14263851 78.81298828 107.16113281 C77.51048126 107.17074036 76.20797424 107.1803479 74.86599731 107.19024658 C73.43410416 107.19509835 72.00220897 107.19937624 70.5703125 107.203125 C69.09976196 107.20888078 67.62921142 107.21463846 66.15866089 107.22039795 C63.06670788 107.23091759 59.9747809 107.23675198 56.8828125 107.24023438 C52.95141999 107.24568022 49.02038068 107.26961892 45.08909798 107.29820633 C42.04500389 107.31699634 39.00099146 107.32204721 35.95684433 107.32357025 C34.50979586 107.32656745 33.0627478 107.33449478 31.61575699 107.34775543 C17.64430346 107.46651053 5.47292683 106.11988821 -4.96875 96.11328125 C-15.4137156 84.84953657 -16.32074105 72.39938528 -16.3359375 57.640625 C-16.34237619 56.16330846 -16.34910532 54.68599316 -16.35610962 53.2086792 C-16.36801831 50.12916096 -16.37179651 47.04975445 -16.37060547 43.97021484 C-16.37040128 40.03034664 -16.39783344 36.09119167 -16.43214989 32.15149307 C-16.4543994 29.1076733 -16.45844382 26.06402674 -16.45738602 23.02013397 C-16.4597399 21.56729395 -16.46855156 20.11444901 -16.48405075 18.66168976 C-16.50369116 16.63295326 -16.49535519 14.60400457 -16.48583984 12.57519531 C-16.48868988 11.42319641 -16.49153992 10.27119751 -16.49447632 9.08428955 C-15.89449973 5.34194345 -14.61779243 3.68892291 -12 1 C-8.07346674 -0.96326663 -4.2486396 -0.80086076 0 0 Z " fill="#0086B0" transform="translate(357,0)"/>
</svg>
